<svg xmlns="http://www.w3.org/2000/svg" xmlns:xlink="http://www.w3.org/1999/xlink" viewBox="0 0 430 430" width="430" height="430" preserveAspectRatio="xMidYMid meet" style="width: 100%; height: 100%; transform: translate3d(0px, 0px, 0px); content-visibility: visible;"><defs><clipPath id="__lottie_element_1686"><rect width="430" height="430" x="0" y="0"/></clipPath><clipPath id="__lottie_element_1688"><path d="M0,0 L430,0 L430,430 L0,430z"/></clipPath></defs><g clip-path="url(#__lottie_element_1686)"><g clip-path="url(#__lottie_element_1688)" transform="matrix(1,0,0,1,0,0)" opacity="1" style="display: block;"><g transform="matrix(1,0,0,1,0,0)" opacity="1" style="display: block;"><g opacity="1" transform="matrix(1,0,0,1,214.51199340820312,177.3350067138672)"><g opacity="1" transform="matrix(1,0,0,1,0,0)"><path stroke-linecap="round" stroke-linejoin="round" fill-opacity="0" class="primary" stroke="rgb(9,92,20)" stroke-opacity="1" stroke-width="7" d=" M142.72799682617188,74.4520034790039 C142.72799682617188,74.4520034790039 142.7270050048828,26.290000915527344 142.7270050048828,26.290000915527344 C142.7270050048828,-52.61899948120117 79.052001953125,-116.58100128173828 0.14300000667572021,-116.58100128173828 C-78.76599884033203,-116.58100128173828 -142.72799682617188,-52.61899948120117 -142.72799682617188,26.290000915527344 C-142.72799682617188,26.290000915527344 -142.72799682617188,116.58100128173828 -142.72799682617188,116.58100128173828"/></g></g><g opacity="1" transform="matrix(1,0,0,1,338.6159973144531,293.9159851074219)"><g opacity="1" transform="matrix(1,0,0,1,0,0)"><path class="primary" fill="rgb(9,92,20)" fill-opacity="1" d=" M-3.9210000038146973,65.33599853515625 C-3.9210000038146973,65.33599853515625 3.9210000038146973,65.33599853515625 3.9210000038146973,65.33599853515625 C13.982000350952148,65.33599853515625 22.132999420166016,57.183998107910156 22.132999420166016,47.12300109863281 C22.132999420166016,47.12300109863281 22.132999420166016,-47.12300109863281 22.132999420166016,-47.12300109863281 C22.132999420166016,-57.183998107910156 13.982000350952148,-65.33599853515625 3.9210000038146973,-65.33599853515625 C3.9210000038146973,-65.33599853515625 -3.9210000038146973,-65.33599853515625 -3.9210000038146973,-65.33599853515625 C-13.982000350952148,-65.33599853515625 -22.132999420166016,-57.183998107910156 -22.132999420166016,-47.12300109863281 C-22.132999420166016,-47.12300109863281 -22.132999420166016,47.12300109863281 -22.132999420166016,47.12300109863281 C-22.132999420166016,57.183998107910156 -13.982000350952148,65.33599853515625 -3.9210000038146973,65.33599853515625z"/></g></g><g opacity="0.5" transform="matrix(1,0,0,1,332.54901123046875,293.9159851074219)" style="mix-blend-mode: multiply;"><g opacity="1" transform="matrix(1,0,0,1,0,0)"><path class="primary" fill="rgb(9,92,20)" fill-opacity="1" d=" M9.987000465393066,65.33599853515625 C9.987000465393066,65.33599853515625 2.1459999084472656,65.33599853515625 2.1459999084472656,65.33599853515625 C-7.914999961853027,65.33599853515625 -16.066999435424805,57.183998107910156 -16.066999435424805,47.12300109863281 C-16.066999435424805,47.12300109863281 -16.066999435424805,-47.12300109863281 -16.066999435424805,-47.12300109863281 C-16.066999435424805,-57.183998107910156 -7.914999961853027,-65.33599853515625 2.1459999084472656,-65.33599853515625 C2.1459999084472656,-65.33599853515625 9.987000465393066,-65.33599853515625 9.987000465393066,-65.33599853515625 C12.119000434875488,-65.33599853515625 14.166000366210938,-64.97000122070312 16.066999435424805,-64.2969970703125 C8.996999740600586,-61.79499816894531 3.933000087738037,-55.051998138427734 3.933000087738037,-47.12300109863281 C3.933000087738037,-47.12300109863281 3.933000087738037,47.12300109863281 3.933000087738037,47.12300109863281 C3.933000087738037,55.051998138427734 8.996999740600586,61.79499816894531 16.066999435424805,64.2969970703125 C14.166000366210938,64.97000122070312 12.119000434875488,65.33599853515625 9.987000465393066,65.33599853515625z"/></g></g><g opacity="1" transform="matrix(1,0,0,1,90.43800354003906,293.885009765625)"><g opacity="1" transform="matrix(1,0,0,1,0,0)"><path class="primary" fill="rgb(9,92,20)" fill-opacity="1" d=" M-3.9210000038146973,65.33599853515625 C-3.9210000038146973,65.33599853515625 3.9210000038146973,65.33599853515625 3.9210000038146973,65.33599853515625 C13.970000267028809,65.33599853515625 22.121000289916992,57.183998107910156 22.132999420166016,47.12300109863281 C22.132999420166016,47.12300109863281 22.132999420166016,-47.12300109863281 22.132999420166016,-47.12300109863281 C22.132999420166016,-57.183998107910156 13.982000350952148,-65.33599853515625 3.9210000038146973,-65.33599853515625 C3.9210000038146973,-65.33599853515625 -3.9210000038146973,-65.33599853515625 -3.9210000038146973,-65.33599853515625 C-13.982000350952148,-65.33599853515625 -22.132999420166016,-57.183998107910156 -22.132999420166016,-47.12300109863281 C-22.132999420166016,-47.12300109863281 -22.132999420166016,47.12300109863281 -22.132999420166016,47.12300109863281 C-22.132999420166016,57.183998107910156 -13.982000350952148,65.33599853515625 -3.9210000038146973,65.33599853515625z"/></g></g><g opacity="0.5" transform="matrix(1,0,0,1,84.37200164794922,293.885009765625)" style="mix-blend-mode: multiply;"><g opacity="1" transform="matrix(1,0,0,1,0,0)"><path class="primary" fill="rgb(9,92,20)" fill-opacity="1" d=" M2.1459999084472656,65.33599853515625 C2.1459999084472656,65.33599853515625 9.987000465393066,65.33599853515625 9.987000465393066,65.33599853515625 C12.118000030517578,65.33599853515625 14.163000106811523,64.96900177001953 16.06399917602539,64.2959976196289 C8.994999885559082,61.792999267578125 3.933000087738037,55.05099868774414 3.933000087738037,47.12300109863281 C3.933000087738037,47.12300109863281 3.933000087738037,-47.12300109863281 3.933000087738037,-47.12300109863281 C3.933000087738037,-55.051998138427734 8.996999740600586,-61.79499816894531 16.066999435424805,-64.2969970703125 C14.166000366210938,-64.97000122070312 12.119000434875488,-65.33599853515625 9.987000465393066,-65.33599853515625 C9.987000465393066,-65.33599853515625 2.1459999084472656,-65.33599853515625 2.1459999084472656,-65.33599853515625 C-7.914999961853027,-65.33599853515625 -16.066999435424805,-57.183998107910156 -16.066999435424805,-47.12300109863281 C-16.066999435424805,-47.12300109863281 -16.066999435424805,47.12300109863281 -16.066999435424805,47.12300109863281 C-16.066999435424805,57.183998107910156 -7.914999961853027,65.33599853515625 2.1459999084472656,65.33599853515625z"/></g></g><g opacity="1" transform="matrix(1,0,0,1,393.0539855957031,293.77801513671875)"><g opacity="1" transform="matrix(1,0,0,1,0,0)"><path class="secondary" fill="rgb(145,22,16)" fill-opacity="1" d=" M-14.446000099182129,-23.892000198364258 C-14.446000099182129,-25.273000717163086 -13.32699966430664,-26.392000198364258 -11.946000099182129,-26.392000198364258 C2.634000062942505,-26.392000198364258 14.446000099182129,-14.579999923706055 14.446000099182129,0 C14.446000099182129,14.579999923706055 2.634000062942505,26.392000198364258 -11.946000099182129,26.392000198364258 C-13.32699966430664,26.392000198364258 -14.446000099182129,25.273000717163086 -14.446000099182129,23.892000198364258 C-14.446000099182129,23.892000198364258 -14.446000099182129,-23.892000198364258 -14.446000099182129,-23.892000198364258z"/></g></g><g opacity="1" transform="matrix(1,0,0,1,36.94599914550781,293.7720031738281)"><g opacity="1" transform="matrix(1,0,0,1,0,0)"><path class="secondary" fill="rgb(145,22,16)" fill-opacity="1" d=" M-14.446000099182129,0.006000000052154064 C-14.446000099182129,-14.574000358581543 -2.634000062942505,-26.386999130249023 11.946000099182129,-26.386999130249023 C13.32699966430664,-26.386999130249023 14.446000099182129,-25.26799964904785 14.446000099182129,-23.886999130249023 C14.446000099182129,-23.886999130249023 14.446000099182129,23.886999130249023 14.446000099182129,23.886999130249023 C14.446000099182129,25.26799964904785 13.32699966430664,26.386999130249023 11.946000099182129,26.386999130249023 C-2.632999897003174,26.386999130249023 -14.446000099182129,14.574999809265137 -14.446000099182129,0.006000000052154064z"/></g></g><g opacity="0.5" transform="matrix(1,0,0,1,36.762001037597656,293.7720031738281)" style="mix-blend-mode: multiply;"><g opacity="1" transform="matrix(1,0,0,1,0,0)"><path class="secondary" fill="rgb(145,22,16)" fill-opacity="1" d=" M12.130999565124512,-26.386999130249023 C-2.4489998817443848,-26.386999130249023 -14.26200008392334,-14.574000358581543 -14.26200008392334,0.006000000052154064 C-14.26200008392334,14.574999809265137 -2.447999954223633,26.386999130249023 12.130999565124512,26.386999130249023 C13.031999588012695,26.386999130249023 13.821999549865723,25.909000396728516 14.26200008392334,25.194000244140625 C3.5280001163482666,21.847999572753906 -4.26200008392334,11.836000442504883 -4.26200008392334,0.006000000052154064 C-4.26200008392334,-11.833000183105469 3.5269999504089355,-21.847000122070312 14.26200008392334,-25.194000244140625 C13.821999549865723,-25.909000396728516 13.031999588012695,-26.386999130249023 12.130999565124512,-26.386999130249023z"/></g></g><g opacity="0.5" transform="matrix(1,0,0,1,383.7919921875,293.77801513671875)" style="mix-blend-mode: multiply;"><g opacity="1" transform="matrix(1,0,0,1,0,0)"><path class="secondary" fill="rgb(145,22,16)" fill-opacity="1" d=" M-2.684000015258789,-26.392000198364258 C-4.065000057220459,-26.392000198364258 -5.184000015258789,-25.273000717163086 -5.184000015258789,-23.892000198364258 C-5.184000015258789,-23.892000198364258 -5.184000015258789,23.892000198364258 -5.184000015258789,23.892000198364258 C-5.184000015258789,25.273000717163086 -4.065000057220459,26.392000198364258 -2.684000015258789,26.392000198364258 C0.05700000002980232,26.392000198364258 2.6989998817443848,25.975000381469727 5.184000015258789,25.200000762939453 C4.949999809265137,24.81999969482422 4.815999984741211,24.371000289916992 4.815999984741211,23.892000198364258 C4.815999984741211,23.892000198364258 4.815999984741211,-23.892000198364258 4.815999984741211,-23.892000198364258 C4.815999984741211,-24.371000289916992 4.949999809265137,-24.81999969482422 5.184000015258789,-25.200000762939453 C2.6989998817443848,-25.975000381469727 0.05700000002980232,-26.392000198364258 -2.684000015258789,-26.392000198364258z"/></g></g></g></g></g></svg>