<svg xmlns="http://www.w3.org/2000/svg" xmlns:xlink="http://www.w3.org/1999/xlink" viewBox="0 0 430 430" width="430" height="430" preserveAspectRatio="xMidYMid meet" style="width: 100%; height: 100%; transform: translate3d(0px, 0px, 0px); content-visibility: visible;"><defs><clipPath id="__lottie_element_1897"><rect width="430" height="430" x="0" y="0"/></clipPath><clipPath id="__lottie_element_1899"><path d="M0,0 L430,0 L430,430 L0,430z"/></clipPath></defs><g clip-path="url(#__lottie_element_1897)"><g clip-path="url(#__lottie_element_1899)" transform="matrix(1,0,0,1,0,0)" opacity="1" style="display: block;"><g transform="matrix(1,0,0,1,0,0)" opacity="1" style="display: block;"><g opacity="1" transform="matrix(1,0,0,1,214.5050048828125,131.02499389648438)"><g opacity="1" transform="matrix(1,0,0,1,0,0)"><path class="primary" fill="rgb(21,198,45)" fill-opacity="1" d=" M159.84500122070312,13.654999732971191 C159.7949981689453,14.114999771118164 159.73500061035156,14.5649995803833 159.68499755859375,15.024999618530273 C159.63499450683594,15.46500015258789 159.5850067138672,15.71500015258789 159.5050048828125,16.295000076293945 C159.4250030517578,16.875 159.3249969482422,17.44499969482422 159.22500610351562,18.014999389648438 C159.19500732421875,18.19499969482422 159.13499450683594,18.375 159.13499450683594,18.55500030517578 C156.6580047607422,31.95199966430664 149.5679931640625,44.05699920654297 139.09500122070312,52.770999908447266 C128.6219940185547,61.48500061035156 115.42900085449219,66.25499725341797 101.80500030517578,66.25499725341797 C101.80500030517578,66.25499725341797 -101.81500244140625,66.25499725341797 -101.81500244140625,66.25499725341797 C-115.43800354003906,66.25199890136719 -128.62899780273438,61.47999954223633 -139.1009979248047,52.766998291015625 C-149.572998046875,44.05400085449219 -156.66400146484375,31.950000762939453 -159.14500427246094,18.55500030517578 C-159.22500610351562,18.375 -159.22500610351562,18.19499969482422 -159.22500610351562,18.0049991607666 C-159.3249969482422,17.434999465942383 -159.43499755859375,16.735000610351562 -159.5050048828125,16.295000076293945 C-159.5749969482422,15.854999542236328 -159.61500549316406,15.414999961853027 -159.6750030517578,14.96500015258789 C-159.73500061035156,14.515000343322754 -159.77499389648438,14.194999694824219 -159.8350067138672,13.604999542236328 C-159.89500427246094,13.015000343322754 -159.96499633789062,12.425000190734863 -159.96499633789062,11.835000038146973 C-160.03500366210938,11.515000343322754 -160.03500366210938,11.175000190734863 -160.03500366210938,10.835000038146973 C-160.11500549316406,9.885000228881836 -160.11500549316406,8.975000381469727 -160.11500549316406,7.974999904632568 C-160.11500549316406,7.974999904632568 -160.11500549316406,-63.255001068115234 -160.11500549316406,-63.255001068115234 C-160.11500549316406,-64.0510025024414 -159.7989959716797,-64.81300354003906 -159.23599243164062,-65.3759994506836 C-158.67300415039062,-65.93900299072266 -157.91099548339844,-66.25499725341797 -157.11500549316406,-66.25499725341797 C-157.11500549316406,-66.25499725341797 157.11500549316406,-66.25499725341797 157.11500549316406,-66.25499725341797 C157.91099548339844,-66.25499725341797 158.67300415039062,-65.93900299072266 159.23599243164062,-65.3759994506836 C159.7989959716797,-64.81300354003906 160.11500549316406,-64.0510025024414 160.11500549316406,-63.255001068115234 C160.11500549316406,-63.255001068115234 160.11500549316406,8.024999618530273 160.11500549316406,8.024999618530273 C160.11500549316406,8.984999656677246 160.09500122070312,9.9350004196167 160.0449981689453,10.885000228881836 C160.03500366210938,11.204999923706055 159.97500610351562,11.545000076293945 159.97500610351562,11.885000228881836 C159.93499755859375,12.475000381469727 159.89500427246094,13.194999694824219 159.84500122070312,13.654999732971191z"/></g></g><g opacity="1" transform="matrix(1,0,0,1,187.69000244140625,137.07000732421875)"><g opacity="1" transform="matrix(1,0,0,1,0,0)"><path stroke-linecap="round" stroke-linejoin="round" fill-opacity="0" class="tertiary" stroke="rgb(237,108,102)" stroke-opacity="1" stroke-width="7" d=" M-73.97000122070312,0 C-73.97000122070312,0 73.97000122070312,0 73.97000122070312,0"/></g></g><g opacity="1" transform="matrix(1,0,0,1,168.61500549316406,166.77999877929688)"><g opacity="1" transform="matrix(1,0,0,1,0,0)"><path stroke-linecap="round" stroke-linejoin="round" fill-opacity="0" class="tertiary" stroke="rgb(237,108,102)" stroke-opacity="1" stroke-width="7" d=" M54.89500045776367,0 C54.89500045776367,0 -54.89500045776367,0 -54.89500045776367,0"/></g></g><g opacity="1" transform="matrix(1,0,0,1,315.239990234375,164.89999389648438)"><g opacity="1" transform="matrix(1,0,0,1,0,0)"><path class="secondary" fill="rgb(232,57,47)" fill-opacity="1" d=" M0,60.369998931884766 C33.340999603271484,60.369998931884766 60.369998931884766,33.340999603271484 60.369998931884766,0 C60.369998931884766,-33.340999603271484 33.340999603271484,-60.369998931884766 0,-60.369998931884766 C-33.340999603271484,-60.369998931884766 -60.369998931884766,-33.340999603271484 -60.369998931884766,0 C-60.369998931884766,33.340999603271484 -33.340999603271484,60.369998931884766 0,60.369998931884766z"/></g></g><g opacity="0.5" transform="matrix(1,0,0,1,288.80499267578125,164.89999389648438)" style="mix-blend-mode: multiply;"><g opacity="1" transform="matrix(1,0,0,1,0,0)"><path class="secondary" fill="rgb(232,57,47)" fill-opacity="1" d=" M26.434999465942383,60.369998931884766 C28.975000381469727,60.369998931884766 31.47800064086914,60.2130012512207 33.935001373291016,59.909000396728516 C4.132999897003174,56.215999603271484 -18.934999465942383,30.802000045776367 -18.934999465942383,0 C-18.934999465942383,-30.802000045776367 4.132999897003174,-56.215999603271484 33.935001373291016,-59.909000396728516 C31.47800064086914,-60.2130012512207 28.975000381469727,-60.369998931884766 26.434999465942383,-60.369998931884766 C-6.906000137329102,-60.369998931884766 -33.935001373291016,-33.340999603271484 -33.935001373291016,0 C-33.935001373291016,33.340999603271484 -6.906000137329102,60.369998931884766 26.434999465942383,60.369998931884766z"/></g></g><g opacity="1" transform="matrix(1,0,0,1,113.7249984741211,94.52999877929688)"><g opacity="1" transform="matrix(1,0,0,1,0,0)"><path stroke-linecap="round" stroke-linejoin="round" fill-opacity="0" class="quaternary" stroke="rgb(242,76,0)" stroke-opacity="1" stroke-width="12" d=" M0.004999999888241291,0 C0.004999999888241291,0 -0.004999999888241291,0 -0.004999999888241291,0"/></g></g><g opacity="0.5" transform="matrix(1,0,0,1,94.04499816894531,131.0399932861328)" style="mix-blend-mode: multiply;"><g opacity="1" transform="matrix(1,0,0,1,0,0)"><path class="primary" fill="rgb(21,198,45)" fill-opacity="1" d=" M-18.655000686645508,-66.2699966430664 C-18.655000686645508,-66.2699966430664 -18.655000686645508,7.960000038146973 -18.655000686645508,7.960000038146973 C-18.655000686645508,7.960000038146973 -18.655000686645508,7.960000038146973 -18.655000686645508,7.960000038146973 C-18.655000686645508,23.424999237060547 -12.51099967956543,38.25600051879883 -1.5759999752044678,49.191001892089844 C9.359000205993652,60.125999450683594 24.190000534057617,66.2699966430664 39.654998779296875,66.2699966430664 C39.654998779296875,66.2699966430664 18.655000686645508,66.2699966430664 18.655000686645508,66.2699966430664 C3.190000057220459,66.2699966430664 -11.640999794006348,60.125999450683594 -22.576000213623047,49.191001892089844 C-33.51100158691406,38.25600051879883 -39.654998779296875,23.424999237060547 -39.654998779296875,7.960000038146973 C-39.654998779296875,7.960000038146973 -39.654998779296875,-63.27000045776367 -39.654998779296875,-63.27000045776367 C-39.654998779296875,-64.06600189208984 -39.3390007019043,-64.8280029296875 -38.7760009765625,-65.39099884033203 C-38.2130012512207,-65.9540023803711 -37.45100021362305,-66.2699966430664 -36.654998779296875,-66.2699966430664 C-36.654998779296875,-66.2699966430664 -18.655000686645508,-66.2699966430664 -18.655000686645508,-66.2699966430664z"/></g></g></g><g transform="matrix(-1,0,0,-1,665.4600219726562,381.8760070800781)" opacity="1" style="display: block;"><g opacity="1" transform="matrix(1,0,0,1,350.7300109863281,216.68800354003906)"><path stroke-linecap="round" stroke-linejoin="round" fill-opacity="0" class="primary" stroke="rgb(21,198,45)" stroke-opacity="1" stroke-width="7" d=" M0,27.94700050354004 C0,27.94700050354004 0,-27.94700050354004 0,-27.94700050354004"/></g><g opacity="1" transform="matrix(1,0,0,1,350.7300109863281,216.68800354003906)"><path stroke-linecap="round" stroke-linejoin="round" fill-opacity="0" class="primary" stroke="rgb(21,198,45)" stroke-opacity="1" stroke-width="7" d=" M-27.94700050354004,0 C-27.94700050354004,0 27.94700050354004,0 27.94700050354004,0"/></g><g opacity="1" transform="matrix(1,0,0,1,350.7300109863281,216.68800354003906)"><path stroke-linecap="round" stroke-linejoin="round" fill-opacity="0" class="primary" stroke="rgb(21,198,45)" stroke-opacity="1" stroke-width="7" d=" M-19.76099967956543,-19.76099967956543 C-19.76099967956543,-19.76099967956543 19.76099967956543,19.76099967956543 19.76099967956543,19.76099967956543"/></g><g opacity="1" transform="matrix(1,0,0,1,350.7300109863281,216.68800354003906)"><path stroke-linecap="round" stroke-linejoin="round" fill-opacity="0" class="primary" stroke="rgb(21,198,45)" stroke-opacity="1" stroke-width="7" d=" M-19.76099967956543,19.76099967956543 C-19.76099967956543,19.76099967956543 19.76099967956543,-19.76099967956543 19.76099967956543,-19.76099967956543"/></g></g><g transform="matrix(1,0,0,1,147.1269989013672,198.5)" opacity="1" style="display: block;"><g opacity="1" transform="matrix(1,0,0,1,0,0)"><path stroke-linecap="round" stroke-linejoin="round" fill-opacity="0" class="primary" stroke-dasharray=" 54 38" stroke-dashoffset="854" stroke="rgb(21,198,45)" stroke-opacity="1" stroke-width="7" d=" M106.85399627685547,167.81100463867188 C106.85399627685547,167.81100463867188 106.73899841308594,27.21299934387207 106.73899841308594,27.21299934387207"/></g></g><g transform="matrix(1,0,0,1,147.1269989013672,198.5)" opacity="1" style="display: block;"><g opacity="1" transform="matrix(1,0,0,1,0,0)"><path stroke-linecap="round" stroke-linejoin="round" fill-opacity="0" class="primary" stroke-dasharray=" 77 136" stroke-dashoffset="820" stroke="rgb(21,198,45)" stroke-opacity="1" stroke-width="7" d=" M66.35399627685547,167.7050018310547 C66.35399627685547,167.7050018310547 66.23899841308594,27.106000900268555 66.23899841308594,27.106000900268555"/></g></g><g transform="matrix(1,0,0,1,65.62699890136719,198.5)" opacity="1" style="display: block;"><g opacity="1" transform="matrix(1,0,0,1,0,0)"><path stroke-linecap="round" stroke-linejoin="round" fill-opacity="0" class="primary" stroke-dasharray=" 33 154" stroke-dashoffset="728" stroke="rgb(21,198,45)" stroke-opacity="1" stroke-width="7" d=" M66.2969970703125,93.20500183105469 C66.2969970703125,93.20500183105469 66.23899841308594,27.106000900268555 66.23899841308594,27.106000900268555"/></g></g><g transform="matrix(1,0,0,-1,181.93499755859375,112.5780029296875)" opacity="1" style="display: none;"><g opacity="1" transform="matrix(1,0,0,1,0,0)"><path stroke-linecap="round" stroke-linejoin="round" fill-opacity="0" class="primary" stroke="rgb(21,198,45)" stroke-opacity="1" stroke-width="7" d="M0 0"/></g></g><g transform="matrix(1,0,0,-1,181.93499755859375,112.5780029296875)" opacity="1" style="display: block;"><g opacity="1" transform="matrix(1,0,0,1,0,0)"><path stroke-linecap="round" stroke-linejoin="round" fill-opacity="0" class="primary" stroke="rgb(21,198,45)" stroke-opacity="1" stroke-width="7" d=" M-67.78500366210938,-195.3249969482422 C-67.91400146484375,-195.4459991455078 -68.04100036621094,-195.56900024414062 -68.16799926757812,-195.69400024414062 C-72.3270034790039,-199.78599548339844 -76.39700317382812,-205.46499633789062 -76.39700317382812,-218.35299682617188 C-76.39700317382812,-236.89199829101562 -61.18299865722656,-251.9219970703125 -42.41600036621094,-251.9219970703125 C-23.64900016784668,-251.9219970703125 -8.4350004196167,-236.89199829101562 -8.4350004196167,-218.35299682617188 C-8.4350004196167,-218.35299682617188 -8.444000244140625,-112.98100280761719 -8.444000244140625,-112.98100280761719"/></g></g><g transform="matrix(1,0,0,-1,181.93499755859375,112.5780029296875)" opacity="1" style="display: none;"><g opacity="1" transform="matrix(1,0,0,1,0,0)"><path stroke-linecap="round" stroke-linejoin="round" fill-opacity="0" class="primary" stroke="rgb(21,198,45)" stroke-opacity="1" stroke-width="7" d="M0 0"/></g></g><g transform="matrix(1,0,0,-1,181.93499755859375,112.5780029296875)" opacity="1" style="display: none;"><g opacity="1" transform="matrix(1,0,0,1,0,0)"><path stroke-linecap="round" stroke-linejoin="round" fill-opacity="0" class="primary" stroke="rgb(21,198,45)" stroke-opacity="1" stroke-width="7" d="M0 0"/></g></g></g></g></svg>