<svg xmlns="http://www.w3.org/2000/svg" xmlns:xlink="http://www.w3.org/1999/xlink" viewBox="0 0 430 430" width="430" height="430" preserveAspectRatio="xMidYMid meet" style="width: 100%; height: 100%; transform: translate3d(0px, 0px, 0px); content-visibility: visible;"><defs><clipPath id="__lottie_element_2094"><rect width="430" height="430" x="0" y="0"/></clipPath><clipPath id="__lottie_element_2096"><path d="M0,0 L430,0 L430,430 L0,430z"/></clipPath><g id="__lottie_element_2112"><g transform="matrix(1,0,0,1,239,160.96299743652344)" opacity="1" style="display: block;"><g opacity="1" transform="matrix(1,0,0,1,0,0)"><path fill="rgb(235,230,239)" fill-opacity="1" d=" M-115.45410919189453,0 C-115.45410919189453,71.66100311279297 -73.92300415039062,129.7550048828125 -22.692626953125,129.7550048828125 C28.53774642944336,129.7550048828125 70.06884765625,71.66100311279297 70.06884765625,0 C70.06884765625,-71.66100311279297 28.53774642944336,-129.7550048828125 -22.692626953125,-129.7550048828125 C-73.92300415039062,-129.7550048828125 -115.45410919189453,-71.66100311279297 -115.45410919189453,0z"/></g></g></g><filter id="__lottie_element_2121" filterUnits="objectBoundingBox" x="0%" y="0%" width="100%" height="100%"><feComponentTransfer in="SourceGraphic"><feFuncA type="table" tableValues="1.0 0.0"/></feComponentTransfer></filter><mask id="__lottie_element_2112_2" mask-type="alpha"><g filter="url(#__lottie_element_2121)"><rect width="430" height="430" x="0" y="0" fill="#ffffff" opacity="0"/><use xmlns:ns1="http://www.w3.org/1999/xlink" ns1:href="#__lottie_element_2112"/></g></mask></defs><g clip-path="url(#__lottie_element_2094)"><g clip-path="url(#__lottie_element_2096)" transform="matrix(1,0,0,1,0,0)" opacity="1" style="display: block;"><g transform="matrix(1,0,0,1,-35,-35)" opacity="1" style="display: block;"><g opacity="1" transform="matrix(1,0,0,1,250,389.2340087890625)"><path class="primary" fill="rgb(198,31,21)" fill-opacity="1" d=" M51.11600112915039,5.116000175476074 C51.11600112915039,5.116000175476074 31.518999099731445,-21.01300048828125 31.518999099731445,-21.01300048828125 C31.518999099731445,-21.01300048828125 -31.518999099731445,-21.01300048828125 -31.518999099731445,-21.01300048828125 C-31.518999099731445,-21.01300048828125 -51.11600112915039,5.116000175476074 -51.11600112915039,5.116000175476074 C-56.02799987792969,11.666000366210938 -51.35499954223633,21.01300048828125 -43.167999267578125,21.01300048828125 C-43.167999267578125,21.01300048828125 43.167999267578125,21.01300048828125 43.167999267578125,21.01300048828125 C51.35499954223633,21.01300048828125 56.02799987792969,11.666000366210938 51.11600112915039,5.116000175476074z"/></g><g opacity="1" transform="matrix(1,0,0,1,250,324.0950012207031)"><path class="primary" fill="rgb(198,31,21)" fill-opacity="1" d=" M21.71500015258789,-44.125 C21.71500015258789,-44.125 -21.71500015258789,-44.125 -21.71500015258789,-44.125 C-21.71500015258789,-44.125 -31.514999389648438,44.125 -31.514999389648438,44.125 C-31.514999389648438,44.125 31.514999389648438,44.125 31.514999389648438,44.125 C31.514999389648438,44.125 21.71500015258789,-44.125 21.71500015258789,-44.125z"/></g></g><g transform="matrix(1,0,0,1,189.45799255371094,310.1080017089844)" opacity="0.5" style="mix-blend-mode: multiply; display: block;"><g opacity="1" transform="matrix(1,0,0,1,0,0)" style="mix-blend-mode: multiply;"><path class="primary" fill="rgb(198,31,21)" fill-opacity="1" d=" M27.57900047302246,-65.13800048828125 C27.57900047302246,-65.13800048828125 3.8259999752044678,-65.13800048828125 3.8259999752044678,-65.13800048828125 C3.8259999752044678,-65.13800048828125 -5.973999977111816,23.11199951171875 -5.973999977111816,23.11199951171875 C-5.973999977111816,23.11199951171875 -5.953999996185303,23.11199951171875 -5.953999996185303,23.11199951171875 C-5.953999996185303,23.11199951171875 -5.9770002365112305,23.113000869750977 -5.9770002365112305,23.113000869750977 C-5.9770002365112305,23.113000869750977 -25.573999404907227,49.242000579833984 -25.573999404907227,49.242000579833984 C-30.486000061035156,55.79199981689453 -25.812999725341797,65.13800048828125 -17.625999450683594,65.13800048828125 C-17.625999450683594,65.13800048828125 6.126999855041504,65.13800048828125 6.126999855041504,65.13800048828125 C-2.059999942779541,65.13800048828125 -6.732999801635742,55.79199981689453 -1.8209999799728394,49.242000579833984 C-1.8209999799728394,49.242000579833984 16.459999084472656,24.172000885009766 16.459999084472656,24.172000885009766 C16.966999053955078,23.476999282836914 17.285999298095703,22.663000106811523 17.38599967956543,21.80900001525879 C17.38599967956543,21.80900001525879 27.57900047302246,-65.13800048828125 27.57900047302246,-65.13800048828125z"/></g></g><g transform="matrix(1,0,0,1,215,160.96299743652344)" opacity="1" style="display: block;"><g opacity="1" transform="matrix(1,0,0,1,0,0)"><path class="primary" fill="rgb(198,31,21)" fill-opacity="1" d=" M-115.45410919189453,0 C-115.45410919189453,71.66100311279297 -73.92300415039062,129.7550048828125 -22.692626953125,129.7550048828125 C28.53774642944336,129.7550048828125 70.06884765625,71.66100311279297 70.06884765625,0 C70.06884765625,-71.66100311279297 28.53774642944336,-129.7550048828125 -22.692626953125,-129.7550048828125 C-73.92300415039062,-129.7550048828125 -115.45410919189453,-71.66100311279297 -115.45410919189453,0z"/></g></g><g mask="url(#__lottie_element_2112_2)" style="mix-blend-mode: multiply; display: block;"><g transform="matrix(1,0,0,1,215,160.96299743652344)" opacity="0.5"><g opacity="1" transform="matrix(1,0,0,1,0,0)"><path class="primary" fill="rgb(198,31,21)" fill-opacity="1" d=" M-115.45410919189453,0 C-115.45410919189453,71.66100311279297 -73.92300415039062,129.7550048828125 -22.692626953125,129.7550048828125 C28.53774642944336,129.7550048828125 70.06884765625,71.66100311279297 70.06884765625,0 C70.06884765625,-71.66100311279297 28.53774642944336,-129.7550048828125 -22.692626953125,-129.7550048828125 C-73.92300415039062,-129.7550048828125 -115.45410919189453,-71.66100311279297 -115.45410919189453,0z"/></g></g></g><g transform="matrix(0.7317554950714111,0,0,1,10.288284301757812,-35)" opacity="1" style="display: block;"><g opacity="1" transform="matrix(0.9675091505050659,0.2528359293937683,-0.2528359293937683,0.9675091505050659,57.344879150390625,-56.88623046875)"><g opacity="1" transform="matrix(1,0,0,1,251.5989990234375,144.91000366210938)"><path class="secondary" fill="rgb(44,165,141)" fill-opacity="1" d=" M11.312000274658203,29.60700035095215 C24.452999114990234,2.013000011444092 31.85099983215332,5.201000213623047 39.16400146484375,-6.723999977111816 C40.69599914550781,-9.222000122070312 42.077999114990234,-13.960000038146973 42.077999114990234,-18.076000213623047 C42.077999114990234,-23.91900062561035 39.94599914550781,-29.264999389648438 36.41699981689453,-33.37900161743164 C32.10200119018555,-38.40999984741211 21.774999618530273,-49.060001373291016 -1.5360000133514404,-49.060001373291016 C-23.927000045776367,-49.060001373291016 -42.077999114990234,-30.90999984741211 -42.077999114990234,-8.519000053405762 C-42.077999114990234,6.210999965667725 -34.316001892089844,26.479999542236328 -22.6299991607666,38.625"/></g><g opacity="1" transform="matrix(1,0,0,1,296.6340026855469,222.23599243164062)"><path class="secondary" fill="rgb(44,165,141)" fill-opacity="1" d=" M-34.220001220703125,-6.738999843597412 C-15.538000106811523,17.097999572753906 -21.618999481201172,22.316999435424805 -14.20199966430664,34.12699890136719 C-12.644000053405762,36.608001708984375 -9.01200008392334,39.95000076293945 -5.323999881744385,41.777000427246094 C-0.08799999952316284,44.37099838256836 5.64900016784668,44.83399963378906 10.902000427246094,43.49800109863281 C17.325000762939453,41.8650016784668 31.45400047302246,37.3390007019043 41.801998138427734,16.451000213623047 C51.742000579833984,-3.611999988555908 43.534000396728516,-27.93400001525879 23.47100067138672,-37.874000549316406 C10.33899974822998,-44.380001068115234 -11.116999626159668,-46.435001373291016 -27.16200065612793,-41.45199966430664"/></g><g opacity="1" transform="matrix(1,0,0,1,205.75599670410156,229.15899658203125)"><path class="secondary" fill="rgb(44,165,141)" fill-opacity="1" d=" M20.26099967956543,-35.84400177001953 C-11.440999984741211,-27.250999450683594 -13.51200008392334,-35.40299987792969 -27.687999725341797,-33.31100082397461 C-30.586000442504883,-32.882999420166016 -35.106998443603516,-30.902999877929688 -38.263999938964844,-28.261999130249023 C-42.74599838256836,-24.51300048828125 -45.479000091552734,-19.44700050354004 -46.369998931884766,-14.10099983215332 C-47.459999084472656,-7.563000202178955 -49.00199890136719,7.191999912261963 -34.04499816894531,25.070999145507812 C-19.67799949645996,42.244998931884766 5.889999866485596,44.520999908447266 23.06399917602539,30.15399932861328 C33.340999603271484,21.55699920654297 43.012001037597656,5.093999862670898 46.04399871826172,-10.42300033569336"/></g><g opacity="1" transform="matrix(1,0,0,1,250.06300354003906,194.73599243164062)"><path class="tertiary" fill="rgb(9,92,20)" fill-opacity="1" d=" M-23.527000427246094,0 C-23.527000427246094,12.993000030517578 -12.993000030517578,23.527000427246094 0,23.527000427246094 C12.993000030517578,23.527000427246094 23.527000427246094,12.993000030517578 23.527000427246094,0 C23.527000427246094,-12.993000030517578 12.993000030517578,-23.527000427246094 0,-23.527000427246094 C-12.993000030517578,-23.527000427246094 -23.527000427246094,-12.993000030517578 -23.527000427246094,0z"/></g></g></g><g transform="matrix(1,0,0,1,215,355.2340087890625)" opacity="1" style="display: block;"><g opacity="1" transform="matrix(1,0,0,1,0,0)"><path stroke-linecap="round" stroke-linejoin="round" fill-opacity="0" class="tertiary" stroke="rgb(9,92,20)" stroke-opacity="1" stroke-width="7" d=" M8.944000244140625,0 C8.944000244140625,0 -8.944000244140625,0 -8.944000244140625,0"/></g></g></g></g></svg>