<svg xmlns="http://www.w3.org/2000/svg" xmlns:xlink="http://www.w3.org/1999/xlink" viewBox="0 0 430 430" width="430" height="430" preserveAspectRatio="xMidYMid meet" style="width: 100%; height: 100%; transform: translate3d(0px, 0px, 0px); content-visibility: visible;"><defs><clipPath id="__lottie_element_1833"><rect width="430" height="430" x="0" y="0"/></clipPath><clipPath id="__lottie_element_1835"><path d="M0,0 L430,0 L430,430 L0,430z"/></clipPath></defs><g clip-path="url(#__lottie_element_1833)"><g clip-path="url(#__lottie_element_1835)" transform="matrix(1,0,0,1,0,0)" opacity="1" style="display: block;"><g transform="matrix(1,0,0,1,215,215)" opacity="1" style="display: block;"><g opacity="1" transform="matrix(1,0,0,1,0,0)"><path class="secondary" fill="rgb(198,31,21)" fill-opacity="1" d=" M92,110 C92,110 -92,110 -92,110 C-93.65699768066406,110 -95,108.65699768066406 -95,107 C-95,107 -95,-182 -95,-182 C-95,-183.65699768066406 -93.65699768066406,-185 -92,-185 C-92,-185 92,-185 92,-185 C93.65699768066406,-185 95,-183.65699768066406 95,-182 C95,-182 95,107 95,107 C95,108.65699768066406 93.65699768066406,110 92,110z"/></g><g opacity="1" transform="matrix(1,0,0,1,-85,0)" style="mix-blend-mode: multiply;"><path class="secondary" fill="rgb(198,31,21)" fill-opacity="0.5" d=" M-7,110 C-7,110 10,110 10,110 C10,110 10,-185 10,-185 C10,-185 -7,-185 -7,-185 C-8.656999588012695,-185 -10,-183.65699768066406 -10,-182 C-10,-182 -10,107 -10,107 C-10,108.65699768066406 -8.656999588012695,110 -7,110z"/></g></g><g transform="matrix(1,0,0,1,215,215)" opacity="1" style="display: block;"><g opacity="1" transform="matrix(1,0,0,1,0,0)"><path class="primary" fill="rgb(9,92,20)" fill-opacity="1" d=" M92,185 C92,185 -92,185 -92,185 C-93.65699768066406,185 -95,183.65699768066406 -95,182 C-95,182 -95,34.625 -95,34.625 C-95,34.555999755859375 -94.94400024414062,34.5 -94.875,34.5 C-94.875,34.5 94.5,34.5 94.5,34.5 C94.7760009765625,34.5 95,34.555999755859375 95,34.625 C95,34.625 95,182 95,182 C95,183.65699768066406 93.65699768066406,185 92,185z"/></g><g opacity="1" transform="matrix(1,0,0,1,-85,0)" style="mix-blend-mode: multiply;"><path class="primary" fill="rgb(9,92,20)" fill-opacity="0.5" d=" M-7,185 C-7,185 10,185 10,185 C10,185 10,34.5 10,34.5 C10,34.5 -9.875,34.5 -9.875,34.5 C-9.944000244140625,34.5 -10,34.555999755859375 -10,34.625 C-10,34.625 -10,182 -10,182 C-10,183.65699768066406 -8.656999588012695,185 -7,185z"/></g></g><g transform="matrix(1.059999942779541,0,0,1.059999942779541,127.66837310791016,602.9594116210938)" opacity="0.5" style="mix-blend-mode: multiply; display: block;"><g opacity="1" transform="matrix(1,0,0,1,0,0)"><path stroke-linecap="butt" stroke-linejoin="miter" fill-opacity="0" stroke-miterlimit="4" class="secondary" stroke="rgb(198,31,21)" stroke-opacity="1" stroke-width="7" d=" M169.81900024414062,-374.4549865722656 C169.81900024414062,-374.4549865722656 -5.698999881744385,-374.3840026855469 -5.698999881744385,-374.3840026855469 M169.97799682617188,-415.0379943847656 C169.97799682617188,-415.0379943847656 -5.540999889373779,-414.9670104980469 -5.540999889373779,-414.9670104980469 M169.81199645996094,-496.70001220703125 C169.81199645996094,-496.70001220703125 -5.706999778747559,-496.6289978027344 -5.706999778747559,-496.6289978027344 M169.73599243164062,-456.61199951171875 C169.73599243164062,-456.61199951171875 -5.7820000648498535,-456.5409851074219 -5.7820000648498535,-456.5409851074219 M82.19599914550781,-333.35101318359375 C82.19599914550781,-333.35101318359375 82.3949966430664,-374.43701171875 82.3949966430664,-374.43701171875"/></g></g><g transform="matrix(1.059999942779541,0,0,1.059999942779541,127.66837310791016,602.9594116210938)" opacity="1" style="display: block;"><g opacity="1" transform="matrix(1,0,0,1,0,0)"><path stroke-linecap="round" stroke-linejoin="round" fill-opacity="0" class="secondary" stroke="rgb(198,31,21)" stroke-opacity="1" stroke-width="7" d=" M30.538999557495117,-299.8389892578125 C30.538999557495117,-299.8389892578125 30.538999557495117,-266.7650146484375 30.538999557495117,-266.7650146484375"/></g></g><g transform="matrix(1,0,0,1,215,215)" opacity="1" style="display: block;"><g opacity="1" transform="matrix(1,0,0,1,0,0)"><path class="primary" fill="rgb(9,92,20)" fill-opacity="1" d=" M94.5,35.5 C94.5,35.5 -94.875,35.5 -94.875,35.5 C-94.94400024414062,35.5 -95,35.61199951171875 -95,35.75 C-95,35.75 -95,-182 -95,-182 C-95,-183.65699768066406 -93.65699768066406,-185 -92,-185 C-92,-185 92,-185 92,-185 C93.65699768066406,-185 95,-183.65699768066406 95,-182 C95,-182 95,32.5 95,32.5 C95,34.15570068359375 94.88797760009766,35.5 94.75,35.5 C94.75,35.5 94.7760009765625,35.5 94.5,35.5z"/></g><g opacity="1" transform="matrix(1,0,0,1,-85,0)" style="mix-blend-mode: multiply;"><path class="primary" fill="rgb(9,92,20)" fill-opacity="0.5" d=" M-9.875,35.5 C-9.875,35.5 10,35.5 10,35.5 C10,35.5 10,-185 10,-185 C10,-185 -7,-185 -7,-185 C-8.656999588012695,-185 -10,-183.65699768066406 -10,-182 C-10,-182 -10,35.75 -10,35.75 C-10,35.61199951171875 -9.944000244140625,35.5 -9.875,35.5z"/></g></g><g transform="matrix(1.059999942779541,0,0,1.059999942779541,127.66902160644531,602.9594116210938)" opacity="1" style="display: block;"><g opacity="1" transform="matrix(1,0,0,1,0,0)"><path stroke-linecap="round" stroke-linejoin="round" fill-opacity="0" class="secondary" stroke="rgb(198,31,21)" stroke-opacity="1" stroke-width="7" d=" M30.774999618530273,-399.1109924316406 C30.774999618530273,-399.1109924316406 30.774999618530273,-366.0360107421875 30.774999618530273,-366.0360107421875"/></g></g><g transform="matrix(1.059999942779541,0,0,1.059999942779541,127.66837310791016,602.9594116210938)" opacity="0.5" style="mix-blend-mode: multiply; display: block;"><g opacity="1" transform="matrix(1,0,0,1,0,0)"><path stroke-linecap="butt" stroke-linejoin="miter" fill-opacity="0" stroke-miterlimit="4" class="primary" stroke="rgb(9,92,20)" stroke-opacity="1" stroke-width="7" d=" M-6.290999889373779,-333.2179870605469 C-6.290999889373779,-333.2179870605469 171.17999267578125,-333.2179870605469 171.17999267578125,-333.2179870605469"/></g></g></g></g></svg>