<svg xmlns="http://www.w3.org/2000/svg" xmlns:xlink="http://www.w3.org/1999/xlink" viewBox="0 0 430 430" width="430" height="430" preserveAspectRatio="xMidYMid meet" style="width: 100%; height: 100%; transform: translate3d(0px, 0px, 0px); content-visibility: visible;"><defs><clipPath id="__lottie_element_3810"><rect width="430" height="430" x="0" y="0"/></clipPath><clipPath id="__lottie_element_3812"><path d="M0,0 L430,0 L430,430 L0,430z"/></clipPath></defs><g clip-path="url(#__lottie_element_3810)"><g clip-path="url(#__lottie_element_3812)" transform="matrix(1,0,0,1,0,0)" opacity="1" style="display: block;"><g transform="matrix(1,0,0,1,215,197)" opacity="1" style="display: block;"><g opacity="1" transform="matrix(1,0,0,1,0,0)"><path class="secondary" fill="rgb(9,92,72)" fill-opacity="1" d=" M140,-117.5 C140,-117.5 -140,-117.5 -140,-117.5 C-151.04600524902344,-117.5 -160,-108.5459976196289 -160,-97.5 C-160,-97.5 -160,97.5 -160,97.5 C-160,97.5 -65,97.5 -65,97.5 C-65,97.5 -65,117.5 -65,117.5 C-65,117.5 60,117.5 60,117.5 C60,117.5 60,97.5 60,97.5 C60,97.5 160,97.5 160,97.5 C160,97.5 160,-97.5 160,-97.5 C160,-108.5459976196289 151.04600524902344,-117.5 140,-117.5z"/></g></g><g transform="matrix(1,0,0,1,215,317)" opacity="1" style="display: block;"><g opacity="1" transform="matrix(1,0,0,1,0,0)"><path class="primary" fill="rgb(9,92,72)" fill-opacity="1" d=" M-58,-27.5 C-56.34299850463867,-27.5 -55,-26.156999588012695 -55,-24.5 C-55,-24.5 -55,-17.5 -55,-17.5 C-55,-11.97700023651123 -50.52299880981445,-7.5 -45,-7.5 C-45,-7.5 45,-7.5 45,-7.5 C50.52299880981445,-7.5 55,-11.97700023651123 55,-17.5 C55,-17.5 55,-24.5 55,-24.5 C55,-26.156999588012695 56.34299850463867,-27.5 58,-27.5 C58,-27.5 182,-27.5 182,-27.5 C183.65699768066406,-27.5 185,-26.156999588012695 185,-24.5 C185,-24.5 185,-2.5 185,-2.5 C185,14.069000244140625 171.56900024414062,27.5 155,27.5 C155,27.5 -155,27.5 -155,27.5 C-171.56900024414062,27.5 -185,14.069000244140625 -185,-2.5 C-185,-2.5 -185,-24.5 -185,-24.5 C-185,-26.156999588012695 -183.65699768066406,-27.5 -182,-27.5 C-182,-27.5 -58,-27.5 -58,-27.5z"/></g><g opacity="1" transform="matrix(1,0,0,1,0,0)" style="mix-blend-mode: multiply;"><path class="primary" fill="rgb(9,92,72)" fill-opacity="1" d=" M-181.14599609375,-27.5 C-181.14599609375,-27.5 -134.14599609375,-27.5 -134.14599609375,-27.5 C-134.14599609375,-27.5 -134.14599609375,-22.5 -134.14599609375,-22.5 C-134.14599609375,-5.931000232696533 -120.71499633789062,7.5 -104.14600372314453,7.5 C-104.14600372314453,7.5 184.14599609375,7.5 184.14599609375,7.5 C180.0279998779297,19.152000427246094 168.91600036621094,27.5 155.85400390625,27.5 C155.85400390625,27.5 -154.14599609375,27.5 -154.14599609375,27.5 C-170.71499633789062,27.5 -184.14599609375,14.069000244140625 -184.14599609375,-2.5 C-184.14599609375,-2.5 -184.14599609375,-24.5 -184.14599609375,-24.5 C-184.14599609375,-26.156999588012695 -182.80299377441406,-27.5 -181.14599609375,-27.5z"/></g></g><g transform="matrix(1,0,0,1,215,182.5)" opacity="1" style="display: block;"><g opacity="1" transform="matrix(1,0,0,1,0,0)"><path class="tertiary" fill="rgb(198,31,21)" fill-opacity="1" d=" M50,-84.5 C50,-86.15699768066406 51.34299850463867,-87.5 53,-87.5 C53,-87.5 130,-87.5 130,-87.5 C138.28399658203125,-87.5 145,-80.78399658203125 145,-72.5 C145,-72.5 145,84.5 145,84.5 C145,86.15699768066406 143.65699768066406,87.5 142,87.5 C142,87.5 -142,87.5 -142,87.5 C-143.65699768066406,87.5 -145,86.15699768066406 -145,84.5 C-145,84.5 -145,-72.5 -145,-72.5 C-145,-80.78399658203125 -138.28399658203125,-87.5 -130,-87.5 C-130,-87.5 -53,-87.5 -53,-87.5 C-51.34299850463867,-87.5 -50,-86.15699768066406 -50,-84.5 C-50,-84.5 -50,-83 -50,-83 C-50,-77.47699737548828 -45.52299880981445,-73 -40,-73 C-40,-73 40,-73 40,-73 C45.52299880981445,-73 50,-77.47699737548828 50,-83 C50,-83 50,-84.5 50,-84.5z"/></g></g><g transform="matrix(1,0,0,1,215,317.5)" opacity="1" style="display: block;"><g opacity="1" transform="matrix(1,0,0,1,0,0)"/></g><g transform="matrix(1,0,0,1,215,185)" opacity="1" style="display: block;"><g opacity="1" transform="matrix(1,0,0,1,0,0)"/></g><g transform="matrix(1,0,0,1,171.43699645996094,211.05099487304688)" opacity="1" style="display: block;"><g opacity="1" transform="matrix(1,0,0,1,0,0)"><path class="quaternary" fill="rgb(242,76,0)" fill-opacity="1" d=" M-12,-32.5 C-13.656999588012695,-32.5 -15,-31.156999588012695 -15,-29.5 C-15,-29.5 -15,29.5 -15,29.5 C-15,31.156999588012695 -13.656999588012695,32.5 -12,32.5 C-12,32.5 15,32.5 15,32.5 C15,32.5 15,-32.5 15,-32.5 C15,-32.5 -12,-32.5 -12,-32.5z"/></g><g opacity="0.5" transform="matrix(1,0,0,1,0,0)" style="mix-blend-mode: multiply;"><path class="quaternary" fill="rgb(242,76,0)" fill-opacity="1" d=" M-12,-32.5 C-12,-32.5 0,-32.5 0,-32.5 C0,-32.5 0,8 0,8 C0,10.76099967956543 2.239000082015991,13 5,13 C5,13 15,13 15,13 C15,13 15,32.5 15,32.5 C15,32.5 -12,32.5 -12,32.5 C-13.656999588012695,32.5 -15,31.156999588012695 -15,29.5 C-15,29.5 -15,-29.5 -15,-29.5 C-15,-31.156999588012695 -13.656999588012695,-32.5 -12,-32.5z"/></g><g opacity="1" transform="matrix(1,0,0,1,61,-27)"><path class="quinary" fill="rgb(16,145,32)" fill-opacity="1" d=" M46.20000076293945,7.120999813079834 C46.20000076293945,7.120999813079834 40.486000061035156,47.12099838256836 40.486000061035156,47.12099838256836 C39.43000030517578,54.51100158691406 33.10200119018555,60 25.636999130249023,60 C25.636999130249023,60 -46.354000091552734,60 -46.354000091552734,60 C-46.354000091552734,60 -46.354000091552734,-5 -46.354000091552734,-5 C-34.77199935913086,-5 -24.847999572753906,-13.281999588012695 -22.775999069213867,-24.677000045776367 C-22.775999069213867,-24.677000045776367 -16.802000045776367,-57.5369987487793 -16.802000045776367,-57.5369987487793 C-16.542999267578125,-58.9630012512207 -15.300000190734863,-60 -13.850000381469727,-60 C-13.850000381469727,-60 -13.454000473022461,-60 -13.454000473022461,-60 C-1.621999979019165,-60 7.624000072479248,-49.784000396728516 6.447000026702881,-38.0099983215332 C6.447000026702881,-38.0099983215332 3.9760000705718994,-13.298999786376953 3.9760000705718994,-13.298999786376953 C3.7990000247955322,-11.532999992370605 5.185999870300293,-10 6.960999965667725,-10 C6.960999965667725,-10 31.35099983215332,-10 31.35099983215332,-10 C40.479000091552734,-10 47.49100112915039,-1.9149999618530273 46.20000076293945,7.120999813079834z"/></g><g opacity="0.5" transform="matrix(1,0,0,1,59.25,18)" style="mix-blend-mode: multiply;"><path class="quinary" fill="rgb(16,145,32)" fill-opacity="1" d=" M-44.66699981689453,15.166999816894531 C-44.66699981689453,15.166999816894531 -44.66699981689453,-4.333000183105469 -44.66699981689453,-4.333000183105469 C-44.66699981689453,-4.333000183105469 29.8799991607666,-4.333000183105469 29.8799991607666,-4.333000183105469 C36.71699905395508,-4.333000183105469 42.6349983215332,-8.807000160217285 44.66699981689453,-15.166999816894531 C44.66699981689453,-15.166999816894531 42.17300033569336,2.2880001068115234 42.17300033569336,2.2880001068115234 C41.117000579833984,9.678000450134277 34.78900146484375,15.166999816894531 27.323999404907227,15.166999816894531 C27.323999404907227,15.166999816894531 -44.66699981689453,15.166999816894531 -44.66699981689453,15.166999816894531z"/></g></g><g transform="matrix(1,0,0,1,171.43699645996094,211.05099487304688)" opacity="1" style="display: block;"><g opacity="1" transform="matrix(1,0,0,1,0,0.5)"/><g opacity="1" transform="matrix(1,0,0,1,61,-27)"/></g></g></g></svg>