<svg xmlns="http://www.w3.org/2000/svg" xmlns:xlink="http://www.w3.org/1999/xlink" viewBox="0 0 430 430" width="430" height="430" preserveAspectRatio="xMidYMid meet" style="width: 100%; height: 100%; transform: translate3d(0px, 0px, 0px); content-visibility: visible;"><defs><clipPath id="__lottie_element_2056"><rect width="430" height="430" x="0" y="0"/></clipPath><clipPath id="__lottie_element_2058"><path d="M0,0 L430,0 L430,430 L0,430z"/></clipPath><g id="__lottie_element_2066"><g transform="matrix(1,0,0,1,-35,-35)" opacity="1" style="display: block;"><path fill="rgb(255,0,0)" fill-opacity="1" d=" M316.85,330.22 C316.85,330.22 104.65,330.06 104.65,330.06 C96.49,330.06 89.88,323.45 89.88,315.29 C89.88,315.29 89.88,158.02 89.88,158.02 C89.88,149.87 96.49,143.25 104.65,143.25 C104.65,143.25 316.85,143.41 316.85,143.41 C316.85,143.41 316.85,330.22 316.85,330.22z M276.39,289.37 C276.39,289.37 129.61,289.37 129.61,289.37 C129.61,289.37 129.61,182.63 129.61,182.63 C129.61,182.63 276.39,182.63 276.39,182.63 C276.39,182.63 276.39,289.37 276.39,289.37z M316.84,143.41 C316.84,143.41 316.87,143.42 316.87,143.42 C316.87,143.42 316.85,330.31 316.85,330.31 C316.85,330.31 316.95,330.17 316.95,330.17"/><g opacity="1" transform="matrix(1,0,0,1,143.57000732421875,343.40301513671875)"/><g opacity="0" transform="matrix(1,0,0,1,143.57000732421875,343.40301513671875)"/></g></g><filter id="__lottie_element_2074" filterUnits="objectBoundingBox" x="0%" y="0%" width="100%" height="100%"><feComponentTransfer in="SourceGraphic"><feFuncA type="table" tableValues="1.0 0.0"/></feComponentTransfer></filter><mask id="__lottie_element_2066_2" mask-type="alpha"><g filter="url(#__lottie_element_2074)"><rect width="430" height="430" x="0" y="0" fill="#ffffff" opacity="0"/><use xmlns:ns1="http://www.w3.org/1999/xlink" ns1:href="#__lottie_element_2066"/></g></mask></defs><g clip-path="url(#__lottie_element_2056)"><g clip-path="url(#__lottie_element_2058)" transform="matrix(1,0,0,1,0,0)" opacity="1" style="display: block;"><g transform="matrix(1,0,0,1,281.71600341796875,201.65699768066406)" opacity="1" style="display: block;"><g opacity="1" transform="matrix(1,0,0,1,0,0)"><path stroke-linecap="round" stroke-linejoin="round" fill-opacity="0" class="primary" stroke="rgb(237,108,102)" stroke-opacity="1" stroke-width="5.985" d=" M0,-93.56099700927734 C0,-93.56099700927734 0,93.56099700927734 0,93.56099700927734"/></g></g><g mask="url(#__lottie_element_2066_2)" style="display: block;"><g transform="matrix(1,0,0,1,-35,-35)" opacity="1"><g opacity="1" transform="matrix(1,0,0,1,363.4179992675781,236.22799682617188)"><path stroke-linecap="round" stroke-linejoin="round" fill-opacity="0" class="primary" stroke="rgb(237,108,102)" stroke-opacity="1" stroke-width="5.985" d=" M-46.792999267578125,-92.78900146484375 C-46.792999267578125,-92.78900146484375 -46.792999267578125,93.45800018310547 -46.792999267578125,93.45800018310547 M-246.53399658203125,93.83200073242188 C-246.53399658203125,93.83200073242188 -246.53399658203125,120.51799774169922 -246.53399658203125,120.51799774169922 C-246.53399658203125,120.51799774169922 -193.16099548339844,120.51799774169922 -193.16099548339844,120.51799774169922 C-193.16099548339844,120.51799774169922 -193.16099548339844,93.83200073242188 -193.16099548339844,93.83200073242188 M-33.67399978637695,93.83200073242188 C-33.67399978637695,93.83200073242188 -33.67399978637695,120.51799774169922 -33.67399978637695,120.51799774169922 C-33.67399978637695,120.51799774169922 19.698999404907227,120.51799774169922 19.698999404907227,120.51799774169922 C19.698999404907227,120.51799774169922 19.698999404907227,93.83200073242188 19.698999404907227,93.83200073242188 M31.934999465942383,93.83200073242188 C31.934999465942383,93.83200073242188 -258.77099609375,93.83200073242188 -258.77099609375,93.83200073242188 C-266.9259948730469,93.83200073242188 -273.5369873046875,87.22100067138672 -273.5369873046875,79.06600189208984 C-273.5369873046875,79.06600189208984 -273.5369873046875,-78.20800018310547 -273.5369873046875,-78.20800018310547 C-273.5369873046875,-86.36299896240234 -266.9259948730469,-92.9739990234375 -258.77099609375,-92.9739990234375 C-258.77099609375,-92.9739990234375 31.934999465942383,-92.9739990234375 31.934999465942383,-92.9739990234375 C40.09000015258789,-92.9739990234375 46.70100021362305,-86.36299896240234 46.70100021362305,-78.20800018310547 C46.70100021362305,-78.20800018310547 46.70100021362305,79.06600189208984 46.70100021362305,79.06600189208984 C46.70100021362305,87.22100067138672 40.09000015258789,93.83200073242188 31.934999465942383,93.83200073242188z M0,16.4950008392334 C-9.109999656677246,16.4950008392334 -16.4950008392334,9.109999656677246 -16.4950008392334,0 C-16.4950008392334,-9.109999656677246 -9.109999656677246,-16.4950008392334 0,-16.4950008392334 C9.109999656677246,-16.4950008392334 16.4950008392334,-9.109999656677246 16.4950008392334,0 C16.4950008392334,9.109999656677246 9.109999656677246,16.4950008392334 0,16.4950008392334z"/></g><g opacity="1" transform="matrix(1,0,0,1,379.635009765625,192.28500366210938)"><path stroke-linecap="round" stroke-linejoin="round" fill-opacity="0" class="secondary" stroke="rgb(21,198,45)" stroke-opacity="1" stroke-width="5.985" d=" M5.2820000648498535,113.21499633789062 C5.2820000648498535,113.21499633789062 -37.71799850463867,113.21499633789062 -37.71799850463867,113.21499633789062 C-37.71799850463867,113.21499633789062 -37.71799850463867,86.38200378417969 -37.71799850463867,86.38200378417969 C-37.71799850463867,86.38200378417969 5.2820000648498535,86.38200378417969 5.2820000648498535,86.38200378417969 C5.2820000648498535,86.38200378417969 5.2820000648498535,113.21499633789062 5.2820000648498535,113.21499633789062z M-37.71799850463867,-22.3439998626709 C-37.71799850463867,-22.3439998626709 -27.152999877929688,-22.3439998626709 -27.152999877929688,-22.3439998626709 M-5.2820000648498535,-22.3439998626709 C-5.2820000648498535,-22.3439998626709 5.2820000648498535,-22.3439998626709 5.2820000648498535,-22.3439998626709 M-37.71799850463867,0 C-37.71799850463867,0 -27.152999877929688,0 -27.152999877929688,0 M-5.2820000648498535,0 C-5.2820000648498535,0 5.2820000648498535,0 5.2820000648498535,0"/></g></g></g><g transform="matrix(1,0,0,1,-35,-35)" opacity="1" style="display: block;"><g opacity="1" transform="matrix(1,0,0,1,143.57000732421875,343.40301513671875)"><path stroke-linecap="round" stroke-linejoin="round" fill-opacity="0" class="primary" stroke="rgb(237,108,102)" stroke-opacity="1" stroke-width="5.985" d=" M173.2830047607422,-13.187000274658203 C173.2830047607422,-13.187000274658203 -38.92300033569336,-13.343000411987305 -38.92300033569336,-13.343000411987305 C-47.077999114990234,-13.343000411987305 -53.68899917602539,-19.95400047302246 -53.68899917602539,-28.108999252319336 C-53.68899917602539,-28.108999252319336 -53.68899917602539,-185.38299560546875 -53.68899917602539,-185.38299560546875 C-53.68899917602539,-193.53799438476562 -47.077999114990234,-200.1490020751953 -38.92300033569336,-200.1490020751953 C-38.92300033569336,-200.1490020751953 173.2830047607422,-199.99200439453125 173.2830047607422,-199.99200439453125 C173.2830047607422,-199.99200439453125 173.2830047607422,-13.187000274658203 173.2830047607422,-13.187000274658203z M132.8179931640625,-54.029998779296875 C132.8179931640625,-54.029998779296875 -13.958000183105469,-54.029998779296875 -13.958000183105469,-54.029998779296875 C-13.958000183105469,-54.029998779296875 -13.958000183105469,-160.7760009765625 -13.958000183105469,-160.7760009765625 C-13.958000183105469,-160.7760009765625 132.8179931640625,-160.7760009765625 132.8179931640625,-160.7760009765625 C132.8179931640625,-160.7760009765625 132.8179931640625,-54.029998779296875 132.8179931640625,-54.029998779296875z"/></g><g opacity="0" transform="matrix(1,0,0,1,143.57000732421875,343.40301513671875)"><path stroke-linecap="round" stroke-linejoin="round" fill-opacity="0" class="primary" stroke="rgb(237,108,102)" stroke-opacity="1" stroke-width="5.985" d=" M173.27200317382812,-199.9969940185547 C173.27200317382812,-199.9969940185547 173.2969970703125,-199.98399353027344 173.2969970703125,-199.98399353027344 C173.2969970703125,-199.98399353027344 173.28199768066406,-13.093999862670898 173.28199768066406,-13.093999862670898 C173.28199768066406,-13.093999862670898 173.3820037841797,-13.229000091552734 173.3820037841797,-13.229000091552734"/></g></g></g></g></svg>