<svg xmlns="http://www.w3.org/2000/svg" xmlns:xlink="http://www.w3.org/1999/xlink" viewBox="0 0 430 430" width="430" height="430" preserveAspectRatio="xMidYMid meet" style="width: 100%; height: 100%; transform: translate3d(0px, 0px, 0px); content-visibility: visible;"><defs><clipPath id="__lottie_element_2904"><rect width="430" height="430" x="0" y="0"/></clipPath><clipPath id="__lottie_element_2906"><path d="M0,0 L430,0 L430,430 L0,430z"/></clipPath><clipPath id="__lottie_element_2948"><path d="M0,0 L430,0 L430,430 L0,430z"/></clipPath><clipPath id="__lottie_element_2955"><path d="M0,0 L430,0 L430,430 L0,430z"/></clipPath><g id="__lottie_element_2958"><g transform="matrix(1,0,0,1,0.001007080078125,0)" opacity="1" style="display: block;"><g opacity="1" transform="matrix(1,0,0,1,215,215)"><g opacity="1" transform="matrix(1,0,0,1,0,0)"><path fill="rgb(75,179,253)" fill-opacity="1" d=" M-90,-185 C-101.0459976196289,-185 -110,-176.04600524902344 -110,-165 C-110,-165 -110,165 -110,165 C-110,176.04600524902344 -101.0459976196289,185 -90,185 C-90,185 90,185 90,185 C101.0459976196289,185 110,176.04600524902344 110,165 C110,165 110,-165 110,-165 C110,-176.04600524902344 101.0459976196289,-185 90,-185 C90,-185 -90,-185 -90,-185z"/></g></g></g></g><mask id="__lottie_element_2958_1" mask-type="alpha"><use xmlns:ns1="http://www.w3.org/1999/xlink" ns1:href="#__lottie_element_2958"/></mask></defs><g clip-path="url(#__lottie_element_2904)"><g clip-path="url(#__lottie_element_2948)" transform="matrix(1,0,0,1,0,0)" opacity="1" style="display: block;"><g transform="matrix(1,0,0,1,0.001007080078125,0)" opacity="1" style="display: block;"><g opacity="1" transform="matrix(1,0,0,1,215,215)"><g opacity="1" transform="matrix(1,0,0,1,0,0)"><path class="quaternary" fill="rgb(198,31,21)" fill-opacity="1" d=" M-90,-185 C-101.0459976196289,-185 -110,-176.04600524902344 -110,-165 C-110,-165 -110,165 -110,165 C-110,176.04600524902344 -101.0459976196289,185 -90,185 C-90,185 90,185 90,185 C101.0459976196289,185 110,176.04600524902344 110,165 C110,165 110,-165 110,-165 C110,-176.04600524902344 101.0459976196289,-185 90,-185 C90,-185 -90,-185 -90,-185z"/></g></g><g opacity="0.5" transform="matrix(1,0,0,1,125,215)" style="mix-blend-mode: multiply;"><g opacity="1" transform="matrix(1,0,0,1,0,0)"><path class="quaternary" fill="rgb(198,31,21)" fill-opacity="1" d=" M-20,-165 C-20,-176.04600524902344 -11.045999526977539,-185 0,-185 C0,-185 20,-185 20,-185 C8.954000473022461,-185 0,-176.04600524902344 0,-165 C0,-165 0,165 0,165 C0,176.04600524902344 8.954000473022461,185 20,185 C20,185 0,185 0,185 C-11.045999526977539,185 -20,176.04600524902344 -20,165 C-20,165 -20,-165 -20,-165z"/></g></g></g><g mask="url(#__lottie_element_2958_1)" style="display: block;"><g clip-path="url(#__lottie_element_2955)" transform="matrix(1,0,0,1,0,0)" opacity="1"><g transform="matrix(0,-1,1,0,-25,195)" opacity="1" style="display: block;"><g opacity="1" transform="matrix(1,0,0,1,230,270)"><g opacity="1" transform="matrix(1,0,0,1,0,0)"><path class="primary" fill="rgb(16,145,32)" fill-opacity="1" d=" M15,-40 C37.090999603271484,-40 55,-22.090999603271484 55,0 C55,0 55,37 55,37 C55,38.65700149536133 53.65700149536133,40 52,40 C52,40 -15,40 -15,40 C-37.090999603271484,40 -55,22.090999603271484 -55,0 C-55,-22.090999603271484 -37.090999603271484,-40 -15,-40 C-15,-40 15,-40 15,-40z"/></g></g><g opacity="0.5" transform="matrix(1,0,0,1,230,272.61199951171875)" style="mix-blend-mode: multiply;"><g opacity="1" transform="matrix(1,0,0,1,0,0)"><path class="primary" fill="rgb(16,145,32)" fill-opacity="1" d=" M-55,-2.611999988555908 C-55,-17.509000778198242 -46.85599899291992,-30.503999710083008 -34.777000427246094,-37.38800048828125 C-38.10100173950195,-31.55500030517578 -40,-24.805999755859375 -40,-17.61199951171875 C-40,-17.61199951171875 -40,-12.612000465393066 -40,-12.612000465393066 C-40,6.7179999351501465 -24.329999923706055,22.38800048828125 -5,22.38800048828125 C-5,22.38800048828125 55,22.38800048828125 55,22.38800048828125 C55,22.38800048828125 55,34.38800048828125 55,34.38800048828125 C55,36.04499816894531 53.65700149536133,37.38800048828125 52,37.38800048828125 C52,37.38800048828125 -15,37.38800048828125 -15,37.38800048828125 C-37.090999603271484,37.38800048828125 -55,19.479000091552734 -55,-2.611999988555908z"/></g></g><g opacity="1" transform="matrix(1,0,0,1,205.0050048828125,270)" style="mix-blend-mode: multiply;"><g opacity="1" transform="matrix(1,0,0,1,0,0)"><path stroke-linecap="round" stroke-linejoin="round" fill-opacity="0" class="primary" stroke="rgb(16,145,32)" stroke-opacity="1" stroke-width="10" d=" M-0.004999999888241291,0 C-0.004999999888241291,0 0.004999999888241291,0 0.004999999888241291,0"/></g></g><g opacity="1" transform="matrix(1,0,0,1,230.01499938964844,270)" style="mix-blend-mode: multiply;"><g opacity="1" transform="matrix(1,0,0,1,0,0)"><path stroke-linecap="round" stroke-linejoin="round" fill-opacity="0" class="primary" stroke="rgb(16,145,32)" stroke-opacity="1" stroke-width="10" d=" M-0.004999999888241291,0 C-0.004999999888241291,0 0.004999999888241291,0 0.004999999888241291,0"/></g></g><g opacity="1" transform="matrix(1,0,0,1,255.02499389648438,270)" style="mix-blend-mode: multiply;"><g opacity="1" transform="matrix(1,0,0,1,0,0)"><path stroke-linecap="round" stroke-linejoin="round" fill-opacity="0" class="primary" stroke="rgb(16,145,32)" stroke-opacity="1" stroke-width="10" d=" M-0.004999999888241291,0 C-0.004999999888241291,0 0.004999999888241291,0 0.004999999888241291,0"/></g></g></g><g transform="matrix(0,1,-1,0,345,-283)" opacity="1" style="display: block;"><g opacity="1" transform="matrix(1,0,0,1,200,160)"><g opacity="1" transform="matrix(1,0,0,1,0,0)"><path class="tertiary" fill="rgb(9,92,72)" fill-opacity="1" d=" M-15,-40 C-37.090999603271484,-40 -55,-22.090999603271484 -55,0 C-55,0 -55,37 -55,37 C-55,38.65700149536133 -53.65700149536133,40 -52,40 C-52,40 15,40 15,40 C37.090999603271484,40 55,22.090999603271484 55,0 C55,-22.090999603271484 37.090999603271484,-40 15,-40 C15,-40 -15,-40 -15,-40z"/></g></g><g opacity="0.5" transform="matrix(1,0,0,1,197.38900756835938,162.61199951171875)" style="mix-blend-mode: multiply;"><g opacity="1" transform="matrix(1,0,0,1,0,0)"><path class="tertiary" fill="rgb(9,92,72)" fill-opacity="1" d=" M-37.388999938964844,-17.61199951171875 C-37.388999938964844,-24.80500030517578 -35.4900016784668,-31.55500030517578 -32.16600036621094,-37.38800048828125 C-44.244998931884766,-30.503999710083008 -52.388999938964844,-17.509000778198242 -52.388999938964844,-2.611999988555908 C-52.388999938964844,-2.611999988555908 -52.388999938964844,34.38800048828125 -52.388999938964844,34.38800048828125 C-52.388999938964844,36.04499816894531 -51.04600143432617,37.38800048828125 -49.388999938964844,37.38800048828125 C-49.388999938964844,37.38800048828125 17.611000061035156,37.38800048828125 17.611000061035156,37.38800048828125 C32.50899887084961,37.38800048828125 45.505001068115234,29.243999481201172 52.388999938964844,17.163999557495117 C46.555999755859375,20.488000869750977 39.80500030517578,22.38800048828125 32.611000061035156,22.38800048828125 C32.611000061035156,22.38800048828125 -34.388999938964844,22.38800048828125 -34.388999938964844,22.38800048828125 C-36.04600143432617,22.38800048828125 -37.388999938964844,21.045000076293945 -37.388999938964844,19.38800048828125 C-37.388999938964844,19.38800048828125 -37.388999938964844,-17.61199951171875 -37.388999938964844,-17.61199951171875z"/></g></g></g></g></g><g transform="matrix(1,0,0,1,0.001007080078125,0)" opacity="1" style="display: block;"><g opacity="1" transform="matrix(1,0,0,1,215,65)"><g opacity="1" transform="matrix(1,0,0,1,0,0)"><path stroke-linecap="round" stroke-linejoin="round" fill-opacity="0" class="secondary" stroke="rgb(9,92,72)" stroke-opacity="1" stroke-width="7" d=" M-30,0 C-30,0 30,0 30,0"/></g></g><g opacity="1" transform="matrix(1,0,0,1,215,365)"><g opacity="1" transform="matrix(1,0,0,1,0,0)"><path stroke-linecap="round" stroke-linejoin="round" fill-opacity="0" class="secondary" stroke="rgb(9,92,72)" stroke-opacity="1" stroke-width="7" d=" M-45,0 C-45,0 45,0 45,0"/></g></g></g><g transform="matrix(1,0,0,1,0.001007080078125,0)" opacity="1" style="display: block;"><g opacity="1" transform="matrix(1,0,0,1,214.99899291992188,215)"><g opacity="1" transform="matrix(1,0,0,1,0,0)"><path stroke-linecap="round" stroke-linejoin="round" fill-opacity="0" class="secondary" stroke="rgb(9,92,72)" stroke-opacity="1" stroke-width="7" d=" M-90,-185 C-101.0459976196289,-185 -110,-176.04600524902344 -110,-165 C-110,-165 -110,165 -110,165 C-110,176.04600524902344 -101.0459976196289,185 -90,185 C-90,185 90,185 90,185 C101.0459976196289,185 110,176.04600524902344 110,165 C110,165 110,-165 110,-165 C110,-176.04600524902344 101.0459976196289,-185 90,-185 C90,-185 -90,-185 -90,-185z"/></g></g></g><g transform="matrix(0.9999999403953552,0.0003445192414801568,-0.0003445192414801568,0.9999999403953552,0.1068115234375,-0.098175048828125)" opacity="1" style="display: block;"><g opacity="1" transform="matrix(1,0,0,1,230,270)"><g opacity="1" transform="matrix(1,0,0,1,0,0)"><path class="primary" fill="rgb(16,145,32)" fill-opacity="1" d=" M15,-40 C37.090999603271484,-40 55,-22.090999603271484 55,0 C55,0 55,37 55,37 C55,38.65700149536133 53.65700149536133,40 52,40 C52,40 -15,40 -15,40 C-37.090999603271484,40 -55,22.090999603271484 -55,0 C-55,-22.090999603271484 -37.090999603271484,-40 -15,-40 C-15,-40 15,-40 15,-40z"/></g></g><g opacity="0.5" transform="matrix(1,0,0,1,230,272.61199951171875)" style="mix-blend-mode: multiply;"><g opacity="1" transform="matrix(1,0,0,1,0,0)"><path class="primary" fill="rgb(16,145,32)" fill-opacity="1" d=" M-55,-2.611999988555908 C-55,-17.509000778198242 -46.85599899291992,-30.503999710083008 -34.777000427246094,-37.38800048828125 C-38.10100173950195,-31.55500030517578 -40,-24.805999755859375 -40,-17.61199951171875 C-40,-17.61199951171875 -40,-12.612000465393066 -40,-12.612000465393066 C-40,6.7179999351501465 -24.329999923706055,22.38800048828125 -5,22.38800048828125 C-5,22.38800048828125 55,22.38800048828125 55,22.38800048828125 C55,22.38800048828125 55,34.38800048828125 55,34.38800048828125 C55,36.04499816894531 53.65700149536133,37.38800048828125 52,37.38800048828125 C52,37.38800048828125 -15,37.38800048828125 -15,37.38800048828125 C-37.090999603271484,37.38800048828125 -55,19.479000091552734 -55,-2.611999988555908z"/></g></g></g><g transform="matrix(1,0,0,1,0.5,0.2440032958984375)" opacity="1" style="display: block;"><g opacity="1" transform="matrix(1,0,0,1,200,160)"><g opacity="1" transform="matrix(1,0,0,1,0,0)"><path class="tertiary" fill="rgb(9,92,72)" fill-opacity="1" d=" M-15,-40 C-37.090999603271484,-40 -55,-22.090999603271484 -55,0 C-55,0 -55,37 -55,37 C-55,38.65700149536133 -53.65700149536133,40 -52,40 C-52,40 15,40 15,40 C37.090999603271484,40 55,22.090999603271484 55,0 C55,-22.090999603271484 37.090999603271484,-40 15,-40 C15,-40 -15,-40 -15,-40z"/></g></g><g opacity="0.5" transform="matrix(1,0,0,1,197.38900756835938,162.61199951171875)" style="mix-blend-mode: multiply;"><g opacity="1" transform="matrix(1,0,0,1,0,0)"><path class="tertiary" fill="rgb(9,92,72)" fill-opacity="1" d=" M-37.388999938964844,-17.61199951171875 C-37.388999938964844,-24.80500030517578 -35.4900016784668,-31.55500030517578 -32.16600036621094,-37.38800048828125 C-44.244998931884766,-30.503999710083008 -52.388999938964844,-17.509000778198242 -52.388999938964844,-2.611999988555908 C-52.388999938964844,-2.611999988555908 -52.388999938964844,34.38800048828125 -52.388999938964844,34.38800048828125 C-52.388999938964844,36.04499816894531 -51.04600143432617,37.38800048828125 -49.388999938964844,37.38800048828125 C-49.388999938964844,37.38800048828125 17.611000061035156,37.38800048828125 17.611000061035156,37.38800048828125 C32.50899887084961,37.38800048828125 45.505001068115234,29.243999481201172 52.388999938964844,17.163999557495117 C46.555999755859375,20.488000869750977 39.80500030517578,22.38800048828125 32.611000061035156,22.38800048828125 C32.611000061035156,22.38800048828125 -34.388999938964844,22.38800048828125 -34.388999938964844,22.38800048828125 C-36.04600143432617,22.38800048828125 -37.388999938964844,21.045000076293945 -37.388999938964844,19.38800048828125 C-37.388999938964844,19.38800048828125 -37.388999938964844,-17.61199951171875 -37.388999938964844,-17.61199951171875z"/></g></g></g><g transform="matrix(0.9999999403953552,0.0003445192414801568,-0.0003445192414801568,0.9999999403953552,230.02877807617188,269.9810485839844)" opacity="1" style="mix-blend-mode: multiply; display: block;"><g opacity="1" transform="matrix(1,0,0,1,0,0.03952750191092491)"><path stroke-linecap="round" stroke-linejoin="round" fill-opacity="0" class="primary" stroke="rgb(16,145,32)" stroke-opacity="1" stroke-width="10" d=" M-25.014999389648438,0 C-25.014999389648438,0 -25.0049991607666,0 -25.0049991607666,0"/></g><g opacity="1" transform="matrix(1,0,0,1,0,0)"><path stroke-linecap="round" stroke-linejoin="round" fill-opacity="0" class="primary" stroke="rgb(16,145,32)" stroke-opacity="1" stroke-width="10" d=" M-0.004999999888241291,0 C-0.004999999888241291,0 0.004999999888241291,0 0.004999999888241291,0"/></g><g opacity="1" transform="matrix(1,0,0,1,0,0)"><path stroke-linecap="round" stroke-linejoin="round" fill-opacity="0" class="primary" stroke="rgb(16,145,32)" stroke-opacity="1" stroke-width="10" d=" M25.0049991607666,0 C25.0049991607666,0 25.014999389648438,0 25.014999389648438,0"/></g></g></g><g clip-path="url(#__lottie_element_2906)" transform="matrix(1,0,0,1,0,0)" opacity="1" style="display: none;"><g transform="matrix(1,0,0,1,0.001007080078125,0)" opacity="1" style="display: block;"><g opacity="1" transform="matrix(1,0,0,1,215,215)"><g opacity="1" transform="matrix(1,0,0,1,0,0)"><path class="quaternary" fill="rgb(198,31,21)" fill-opacity="1" d=" M-90,-185 C-101.0459976196289,-185 -110,-176.04600524902344 -110,-165 C-110,-165 -110,165 -110,165 C-110,176.04600524902344 -101.0459976196289,185 -90,185 C-90,185 90,185 90,185 C101.0459976196289,185 110,176.04600524902344 110,165 C110,165 110,-165 110,-165 C110,-176.04600524902344 101.0459976196289,-185 90,-185 C90,-185 -90,-185 -90,-185z"/></g></g><g opacity="1" transform="matrix(1,0,0,1,215,365)"><g opacity="1" transform="matrix(1,0,0,1,0,0)"><path stroke-linecap="round" stroke-linejoin="round" fill-opacity="0" class="secondary" stroke="rgb(9,92,72)" stroke-opacity="1" stroke-width="7" d=" M-45,0 C-45,0 45,0 45,0"/></g></g><g opacity="0.5" transform="matrix(1,0,0,1,125,215)" style="mix-blend-mode: multiply;"><g opacity="1" transform="matrix(1,0,0,1,0,0)"><path class="quaternary" fill="rgb(198,31,21)" fill-opacity="1" d=" M-20,-165 C-20,-176.04600524902344 -11.045999526977539,-185 0,-185 C0,-185 20,-185 20,-185 C8.954000473022461,-185 0,-176.04600524902344 0,-165 C0,-165 0,165 0,165 C0,176.04600524902344 8.954000473022461,185 20,185 C20,185 0,185 0,185 C-11.045999526977539,185 -20,176.04600524902344 -20,165 C-20,165 -20,-165 -20,-165z"/></g></g><g opacity="1" transform="matrix(1,0,0,1,214.99899291992188,215)"><g opacity="1" transform="matrix(1,0,0,1,0,0)"><path stroke-linecap="round" stroke-linejoin="round" fill-opacity="0" class="secondary" stroke="rgb(9,92,72)" stroke-opacity="1" stroke-width="7" d=" M-90,-185 C-101.0459976196289,-185 -110,-176.04600524902344 -110,-165 C-110,-165 -110,165 -110,165 C-110,176.04600524902344 -101.0459976196289,185 -90,185 C-90,185 90,185 90,185 C101.0459976196289,185 110,176.04600524902344 110,165 C110,165 110,-165 110,-165 C110,-176.04600524902344 101.0459976196289,-185 90,-185 C90,-185 -90,-185 -90,-185z"/></g></g></g><g transform="matrix(1,0,0,1,0,0)" opacity="1" style="display: block;"><g opacity="1" transform="matrix(1,0,0,1,230,270)"><g opacity="1" transform="matrix(1,0,0,1,0,0)"><path class="primary" fill="rgb(16,145,32)" fill-opacity="1" d=" M15,-40 C37.090999603271484,-40 55,-22.090999603271484 55,0 C55,0 55,37 55,37 C55,38.65700149536133 53.65700149536133,40 52,40 C52,40 -15,40 -15,40 C-37.090999603271484,40 -55,22.090999603271484 -55,0 C-55,-22.090999603271484 -37.090999603271484,-40 -15,-40 C-15,-40 15,-40 15,-40z"/></g></g><g opacity="0.5" transform="matrix(1,0,0,1,230,272.61199951171875)" style="mix-blend-mode: multiply;"><g opacity="1" transform="matrix(1,0,0,1,0,0)"><path class="primary" fill="rgb(16,145,32)" fill-opacity="1" d=" M-55,-2.611999988555908 C-55,-17.509000778198242 -46.85599899291992,-30.503999710083008 -34.777000427246094,-37.38800048828125 C-38.10100173950195,-31.55500030517578 -40,-24.805999755859375 -40,-17.61199951171875 C-40,-17.61199951171875 -40,-12.612000465393066 -40,-12.612000465393066 C-40,6.7179999351501465 -24.329999923706055,22.38800048828125 -5,22.38800048828125 C-5,22.38800048828125 55,22.38800048828125 55,22.38800048828125 C55,22.38800048828125 55,34.38800048828125 55,34.38800048828125 C55,36.04499816894531 53.65700149536133,37.38800048828125 52,37.38800048828125 C52,37.38800048828125 -15,37.38800048828125 -15,37.38800048828125 C-37.090999603271484,37.38800048828125 -55,19.479000091552734 -55,-2.611999988555908z"/></g></g></g><g transform="matrix(1,0,0,1,0,0)" opacity="1" style="display: block;"><g opacity="1" transform="matrix(1,0,0,1,200,160)"><g opacity="1" transform="matrix(1,0,0,1,0,0)"><path class="tertiary" fill="rgb(9,92,72)" fill-opacity="1" d=" M-15,-40 C-37.090999603271484,-40 -55,-22.090999603271484 -55,0 C-55,0 -55,37 -55,37 C-55,38.65700149536133 -53.65700149536133,40 -52,40 C-52,40 15,40 15,40 C37.090999603271484,40 55,22.090999603271484 55,0 C55,-22.090999603271484 37.090999603271484,-40 15,-40 C15,-40 -15,-40 -15,-40z"/></g></g><g opacity="0.5" transform="matrix(1,0,0,1,197.38900756835938,162.61199951171875)" style="mix-blend-mode: multiply;"><g opacity="1" transform="matrix(1,0,0,1,0,0)"><path class="tertiary" fill="rgb(9,92,72)" fill-opacity="1" d=" M-37.388999938964844,-17.61199951171875 C-37.388999938964844,-24.80500030517578 -35.4900016784668,-31.55500030517578 -32.16600036621094,-37.38800048828125 C-44.244998931884766,-30.503999710083008 -52.388999938964844,-17.509000778198242 -52.388999938964844,-2.611999988555908 C-52.388999938964844,-2.611999988555908 -52.388999938964844,34.38800048828125 -52.388999938964844,34.38800048828125 C-52.388999938964844,36.04499816894531 -51.04600143432617,37.38800048828125 -49.388999938964844,37.38800048828125 C-49.388999938964844,37.38800048828125 17.611000061035156,37.38800048828125 17.611000061035156,37.38800048828125 C32.50899887084961,37.38800048828125 45.505001068115234,29.243999481201172 52.388999938964844,17.163999557495117 C46.555999755859375,20.488000869750977 39.80500030517578,22.38800048828125 32.611000061035156,22.38800048828125 C32.611000061035156,22.38800048828125 -34.388999938964844,22.38800048828125 -34.388999938964844,22.38800048828125 C-36.04600143432617,22.38800048828125 -37.388999938964844,21.045000076293945 -37.388999938964844,19.38800048828125 C-37.388999938964844,19.38800048828125 -37.388999938964844,-17.61199951171875 -37.388999938964844,-17.61199951171875z"/></g></g></g><g transform="matrix(1,0,0,1,230.01499938964844,270)" opacity="1" style="mix-blend-mode: multiply; display: block;"><g opacity="1" transform="matrix(1,0,0,1,0,0)"><path stroke-linecap="round" stroke-linejoin="round" fill-opacity="0" class="primary" stroke="rgb(16,145,32)" stroke-opacity="1" stroke-width="10" d=" M-25.014999389648438,0 C-25.014999389648438,0 -25.0049991607666,0 -25.0049991607666,0"/></g><g opacity="1" transform="matrix(1,0,0,1,0,0)"><path stroke-linecap="round" stroke-linejoin="round" fill-opacity="0" class="primary" stroke="rgb(16,145,32)" stroke-opacity="1" stroke-width="10" d=" M-0.004999999888241291,0 C-0.004999999888241291,0 0.004999999888241291,0 0.004999999888241291,0"/></g><g opacity="1" transform="matrix(1,0,0,1,0,0)"><path stroke-linecap="round" stroke-linejoin="round" fill-opacity="0" class="primary" stroke="rgb(16,145,32)" stroke-opacity="1" stroke-width="10" d=" M25.0049991607666,0 C25.0049991607666,0 25.014999389648438,0 25.014999389648438,0"/></g></g><g transform="matrix(1,0,0,1,0.001007080078125,0)" opacity="1" style="display: block;"><g opacity="1" transform="matrix(1,0,0,1,215,65)"><g opacity="1" transform="matrix(1,0,0,1,0,0)"><path stroke-linecap="round" stroke-linejoin="round" fill-opacity="0" class="secondary" stroke="rgb(9,92,72)" stroke-opacity="1" stroke-width="7" d=" M-30,0 C-30,0 30,0 30,0"/></g></g></g></g></g></svg>