<svg xmlns="http://www.w3.org/2000/svg" xmlns:xlink="http://www.w3.org/1999/xlink" viewBox="0 0 430 430" width="430" height="430" preserveAspectRatio="xMidYMid meet" style="width: 100%; height: 100%; transform: translate3d(0px, 0px, 0px); content-visibility: visible;"><defs><clipPath id="__lottie_element_2247"><rect width="430" height="430" x="0" y="0"/></clipPath><clipPath id="__lottie_element_2249"><path d="M0,0 L430,0 L430,430 L0,430z"/></clipPath></defs><g clip-path="url(#__lottie_element_2247)"><g clip-path="url(#__lottie_element_2249)" transform="matrix(1,0,0,1,0,0)" opacity="1" style="display: block;"><g transform="matrix(1,0,0,1,0,0)" opacity="1" style="display: block;"><g opacity="1" transform="matrix(1,0,0,1,215,215)"><g opacity="1" transform="matrix(1,0,0,1,0,0)"><path class="tertiary" fill="rgb(16,145,32)" fill-opacity="1" d=" M-120.35299682617188,-185 C-120.35299682617188,-185 120.35299682617188,-185 120.35299682617188,-185 C122.01000213623047,-185 123.35299682617188,-183.65699768066406 123.35299682617188,-182 C123.35299682617188,-182 123.35299682617188,182 123.35299682617188,182 C123.35299682617188,183.65699768066406 122.01000213623047,185 120.35299682617188,185 C120.35299682617188,185 -120.35299682617188,185 -120.35299682617188,185 C-122.01000213623047,185 -123.35299682617188,183.65699768066406 -123.35299682617188,182 C-123.35299682617188,182 -123.35299682617188,-182 -123.35299682617188,-182 C-123.35299682617188,-183.65699768066406 -122.01000213623047,-185 -120.35299682617188,-185z"/></g></g><g opacity="0.5" transform="matrix(1,0,0,1,101.64700317382812,215)" style="mix-blend-mode: multiply;"><g opacity="1" transform="matrix(1,0,0,1,0,0)"><path class="tertiary" fill="rgb(16,145,32)" fill-opacity="1" d=" M-7,-185 C-8.656999588012695,-185 -10,-183.65699768066406 -10,-182 C-10,-182 -10,182 -10,182 C-10,183.65699768066406 -8.656999588012695,185 -7,185 C-7,185 10,185 10,185 C10,185 10,-185 10,-185 C10,-185 -7,-185 -7,-185z"/></g></g></g><g transform="matrix(1,0,0,1,0,0)" opacity="1" style="display: block;"><g opacity="1" transform="matrix(1,0,0,1,214.94200134277344,267.3450012207031)"><g opacity="1" transform="matrix(1,0,0,1,0,0)"><path class="primary" fill="rgb(237,108,102)" fill-opacity="1" d=" M0,93.94400024414062 C51.88399887084961,93.94400024414062 93.94400024414062,51.88399887084961 93.94400024414062,0 C93.94400024414062,-51.88399887084961 51.88399887084961,-93.94400024414062 0,-93.94400024414062 C-51.88399887084961,-93.94400024414062 -93.94400024414062,-51.88399887084961 -93.94400024414062,0 C-93.94400024414062,51.88399887084961 -51.88399887084961,93.94400024414062 0,93.94400024414062z"/></g></g><g opacity="0.5" transform="matrix(1,0,0,1,203.59100341796875,278.6969909667969)" style="mix-blend-mode: multiply;"><g opacity="1" transform="matrix(1,0,0,1,0,0)"><path class="primary" fill="rgb(237,108,102)" fill-opacity="1" d=" M21.35099983215332,72.59300231933594 C44.74800109863281,72.59300231933594 66.14800262451172,64.04000091552734 82.59300231933594,49.88999938964844 C65.36399841308594,69.91300201416016 39.8380012512207,82.59300231933594 11.35099983215332,82.59300231933594 C-40.53300094604492,82.59300231933594 -82.59300231933594,40.53200149536133 -82.59300231933594,-11.35200023651123 C-82.59300231933594,-39.8390007019043 -69.91300201416016,-65.36499786376953 -49.88999938964844,-82.59300231933594 C-64.04000091552734,-66.14800262451172 -72.59300231933594,-44.749000549316406 -72.59300231933594,-21.351999282836914 C-72.59300231933594,30.531999588012695 -30.533000946044922,72.59300231933594 21.35099983215332,72.59300231933594z"/></g></g></g><g transform="matrix(1,0,0,1,0,0)" opacity="1" style="display: block;"><g opacity="1" transform="matrix(1,0,0,1,214.94200134277344,267.3450012207031)"><g opacity="1" transform="matrix(1,0,0,1,0,0)"><path class="secondary" fill="rgb(16,145,32)" fill-opacity="1" d=" M0,70.14099884033203 C38.737998962402344,70.14099884033203 70.14099884033203,38.737998962402344 70.14099884033203,0 C70.14099884033203,-38.737998962402344 38.737998962402344,-70.14099884033203 0,-70.14099884033203 C-38.737998962402344,-70.14099884033203 -70.14099884033203,-38.737998962402344 -70.14099884033203,0 C-70.14099884033203,38.737998962402344 -38.737998962402344,70.14099884033203 0,70.14099884033203z"/></g></g><g opacity="0.5" transform="matrix(1,0,0,1,208.13699340820312,274.1510009765625)" style="mix-blend-mode: multiply;"><g opacity="1" transform="matrix(1,0,0,1,0,0)"><path class="secondary" fill="rgb(16,145,32)" fill-opacity="1" d=" M21.80500030517578,48.334999084472656 C37.34700012207031,48.334999084472656 51.70899963378906,43.28099822998047 63.334999084472656,34.724998474121094 C50.566001892089844,52.07600021362305 30,63.334999084472656 6.804999828338623,63.334999084472656 C-31.933000564575195,63.334999084472656 -63.334999084472656,31.933000564575195 -63.334999084472656,-6.804999828338623 C-63.334999084472656,-30 -52.07500076293945,-50.566001892089844 -34.7239990234375,-63.334999084472656 C-43.279998779296875,-51.70899963378906 -48.334999084472656,-37.34700012207031 -48.334999084472656,-21.80500030517578 C-48.334999084472656,16.933000564575195 -16.933000564575195,48.334999084472656 21.80500030517578,48.334999084472656z"/></g></g></g><g transform="matrix(1,0,0,1,0,0)" opacity="1" style="display: block;"><g opacity="1" transform="matrix(1,0,0,1,214.94200134277344,267.3450012207031)"><g opacity="1" transform="matrix(1,0,0,1,0,0)"><path class="primary" fill="rgb(237,108,102)" fill-opacity="1" d=" M0,26.79199981689453 C14.79699993133545,26.79199981689453 26.79199981689453,14.79699993133545 26.79199981689453,0 C26.79199981689453,-14.79699993133545 14.79699993133545,-26.79199981689453 0,-26.79199981689453 C-14.79699993133545,-26.79199981689453 -26.79199981689453,-14.79699993133545 -26.79199981689453,0 C-26.79199981689453,14.79699993133545 -14.79699993133545,26.79199981689453 0,26.79199981689453z"/></g></g><g opacity="0.5" transform="matrix(1,0,0,1,213.16700744628906,269.1210021972656)" style="mix-blend-mode: multiply;"><g opacity="1" transform="matrix(1,0,0,1,0,0)"><path class="primary" fill="rgb(237,108,102)" fill-opacity="1" d=" M11.72599983215332,15.065999984741211 C16.56999969482422,15.065999984741211 21.113000869750977,13.779999732971191 25.034000396728516,11.531999588012695 C20.413999557495117,19.589000701904297 11.727999687194824,25.017000198364258 1.774999976158142,25.017000198364258 C-13.022000312805176,25.017000198364258 -25.017000198364258,13.022000312805176 -25.017000198364258,-1.774999976158142 C-25.017000198364258,-11.727999687194824 -19.589000701904297,-20.413999557495117 -11.531999588012695,-25.034000396728516 C-13.779999732971191,-21.113000869750977 -15.065999984741211,-16.570999145507812 -15.065999984741211,-11.72700023651123 C-15.065999984741211,3.069999933242798 -3.071000099182129,15.065999984741211 11.72599983215332,15.065999984741211z"/></g></g></g><g transform="matrix(1,0,0,1,0,0)" opacity="1" style="display: block;"><g opacity="1" transform="matrix(1,0,0,1,214.94200134277344,96.21199798583984)"><g opacity="1" transform="matrix(1,0,0,1,0,0)"><path class="primary" fill="rgb(237,108,102)" fill-opacity="1" d=" M0,34.78099822998047 C19.208999633789062,34.78099822998047 34.78099822998047,19.208999633789062 34.78099822998047,0 C34.78099822998047,-19.208999633789062 19.208999633789062,-34.78099822998047 0,-34.78099822998047 C-19.208999633789062,-34.78099822998047 -34.78099822998047,-19.208999633789062 -34.78099822998047,0 C-34.78099822998047,19.208999633789062 -19.208999633789062,34.78099822998047 0,34.78099822998047z"/></g></g><g opacity="0.5" transform="matrix(1,0,0,1,210.61300659179688,97.12000274658203)" style="mix-blend-mode: multiply;"><g opacity="1" transform="matrix(1,0,0,1,0,0)"><path class="primary" fill="rgb(237,108,102)" fill-opacity="1" d=" M19.32900047302246,23.87299919128418 C23.2189998626709,23.87299919128418 26.959999084472656,23.235000610351562 30.45199966430664,22.05699920654297 C24.077999114990234,29.302000045776367 14.737000465393066,33.87300109863281 4.328999996185303,33.87300109863281 C-14.880000114440918,33.87300109863281 -30.45199966430664,18.301000595092773 -30.45199966430664,-0.9079999923706055 C-30.45199966430664,-16.22800064086914 -20.54800033569336,-29.233999252319336 -6.793000221252441,-33.87300109863281 C-12.182999610900879,-27.746999740600586 -15.45199966430664,-19.708999633789062 -15.45199966430664,-10.907999992370605 C-15.45199966430664,8.300999641418457 0.11999999731779099,23.87299919128418 19.32900047302246,23.87299919128418z"/></g></g></g><g transform="matrix(1,0,0,1,299.2380065917969,368.8009948730469)" opacity="1" style="display: block;"><g opacity="1" transform="matrix(1,0,0,1,0,0)"><path stroke-linecap="round" stroke-linejoin="round" fill-opacity="0" class="quaternary" stroke="rgb(255,199,56)" stroke-opacity="1" stroke-width="12" d=" M0.11599999666213989,0 C0.11599999666213989,0 -0.11599999666213989,0 -0.11599999666213989,0"/></g></g><g transform="matrix(1,0,0,1,-35,-23)" opacity="0.008302833845210956" style="display: none;"><g opacity="1" transform="matrix(1,0,0,1,250,295.2340087890625)"><path stroke-linecap="round" stroke-linejoin="round" fill-opacity="0" class="primary" stroke="rgb(237,108,102)" stroke-opacity="1" stroke-width="12" d=" M-157.8348846435547,0 C-157.8348846435547,-87.16980743408203 -87.16980743408203,-157.8348846435547 0,-157.8348846435547 C87.16980743408203,-157.8348846435547 157.8348846435547,-87.16980743408203 157.8348846435547,0 C157.8348846435547,87.16980743408203 87.16980743408203,157.8348846435547 0,157.8348846435547 C-87.16980743408203,157.8348846435547 -157.8348846435547,87.16980743408203 -157.8348846435547,0z"/></g></g><g transform="matrix(1,0,0,1,-35,-23)" opacity="0.02932343022850219" style="display: none;"><g opacity="1" transform="matrix(1,0,0,1,250,295.2340087890625)"><path stroke-linecap="round" stroke-linejoin="round" fill-opacity="0" class="primary" stroke="rgb(237,108,102)" stroke-opacity="1" stroke-width="12" d=" M-157.6509552001953,0 C-157.6509552001953,-87.06822967529297 -87.06822967529297,-157.6509552001953 0,-157.6509552001953 C87.06822967529297,-157.6509552001953 157.6509552001953,-87.06822967529297 157.6509552001953,0 C157.6509552001953,87.06822967529297 87.06822967529297,157.6509552001953 0,157.6509552001953 C-87.06822967529297,157.6509552001953 -157.6509552001953,87.06822967529297 -157.6509552001953,0z"/></g></g><g transform="matrix(1,0,0,1,-35,-22.5)" opacity="0.02900129233034065" style="display: none;"><g opacity="1" transform="matrix(1,0,0,1,250,295.2340087890625)"><path stroke-linecap="round" stroke-linejoin="round" fill-opacity="0" class="primary" stroke="rgb(237,108,102)" stroke-opacity="1" stroke-width="12" d=" M-157.6541748046875,0 C-157.6541748046875,-87.07000732421875 -87.07000732421875,-157.6541748046875 0,-157.6541748046875 C87.07000732421875,-157.6541748046875 157.6541748046875,-87.07000732421875 157.6541748046875,0 C157.6541748046875,87.07000732421875 87.07000732421875,157.6541748046875 0,157.6541748046875 C-87.07000732421875,157.6541748046875 -157.6541748046875,87.07000732421875 -157.6541748046875,0z"/></g></g><g transform="matrix(1,0,0,1,-35,-24.5)" opacity="0.005861533177691314" style="display: none;"><g opacity="1" transform="matrix(1,0,0,1,250,295.2340087890625)"><path stroke-linecap="round" stroke-linejoin="round" fill-opacity="0" class="primary" stroke="rgb(237,108,102)" stroke-opacity="1" stroke-width="12" d=" M-157.85284423828125,0 C-157.85284423828125,-87.17972564697266 -87.17972564697266,-157.85284423828125 0,-157.85284423828125 C87.17972564697266,-157.85284423828125 157.85284423828125,-87.17972564697266 157.85284423828125,0 C157.85284423828125,87.17972564697266 87.17972564697266,157.85284423828125 0,157.85284423828125 C-87.17972564697266,157.85284423828125 -157.85284423828125,87.17972564697266 -157.85284423828125,0z"/></g></g></g></g></svg>