<svg xmlns="http://www.w3.org/2000/svg" xmlns:xlink="http://www.w3.org/1999/xlink" viewBox="0 0 430 430" width="430" height="430" preserveAspectRatio="xMidYMid meet" style="width: 100%; height: 100%; transform: translate3d(0px, 0px, 0px); content-visibility: visible;"><defs><clipPath id="__lottie_element_615"><rect width="430" height="430" x="0" y="0"/></clipPath><clipPath id="__lottie_element_617"><path d="M0,0 L430,0 L430,430 L0,430z"/></clipPath><g id="__lottie_element_637"><g transform="matrix(1,0,0,1,215,205)" opacity="1" style="display: block;"><path fill="rgb(255,0,0)" fill-opacity="1" d=" M185,-120 C185,-120 -185,-120 -185,-120 C-185,-120 -185,120 -185,120 C-185,120 185,120 185,120 C185,120 185,-120 185,-120z"/><g opacity="1" transform="matrix(1,0,0,1,0,0)"/></g></g><g id="__lottie_element_642"><g transform="matrix(1,0,0,1,215,205)" opacity="1" style="display: block;"><path fill="rgb(255,0,0)" fill-opacity="1" d=" M185,-120 C185,-120 -185,-120 -185,-120 C-185,-120 -185,120 -185,120 C-185,120 185,120 185,120 C185,120 185,-120 185,-120z"/><g opacity="1" transform="matrix(1,0,0,1,0,0)"/></g></g><mask id="__lottie_element_642_1" mask-type="alpha"><use xmlns:ns1="http://www.w3.org/1999/xlink" ns1:href="#__lottie_element_642"/></mask><mask id="__lottie_element_637_1" mask-type="alpha"><use xmlns:ns2="http://www.w3.org/1999/xlink" ns2:href="#__lottie_element_637"/></mask><clipPath id="__lottie_element_686"><path d="M0,0 L430,0 L430,430 L0,430z"/></clipPath><clipPath id="__lottie_element_739"><path d="M0,0 L430,0 L430,430 L0,430z"/></clipPath><clipPath id="__lottie_element_773"><path d="M0,0 L430,0 L430,430 L0,430z"/></clipPath><clipPath id="__lottie_element_825"><path d="M0,0 L430,0 L430,430 L0,430z"/></clipPath><clipPath id="__lottie_element_905"><path d="M0,0 L430,0 L430,430 L0,430z"/></clipPath><g id="__lottie_element_908"><g transform="matrix(1,0,0,1,215,205)" opacity="1" style="display: block;"><path fill="rgb(255,0,0)" fill-opacity="1" d=" M185,-120 C185,-120 -185,-120 -185,-120 C-185,-120 -185,120 -185,120 C-185,120 185,120 185,120 C185,120 185,-120 185,-120z"/><g opacity="1" transform="matrix(1,0,0,1,0,0)"/></g></g><mask id="__lottie_element_908_1" mask-type="alpha"><use xmlns:ns3="http://www.w3.org/1999/xlink" ns3:href="#__lottie_element_908"/></mask></defs><g clip-path="url(#__lottie_element_615)"><g clip-path="url(#__lottie_element_617)" transform="matrix(1,0,0,1,0,0)" opacity="1" style="display: block;"><g transform="matrix(1,0,0,1,77.5,345)" opacity="1" style="display: block;"><g opacity="1" transform="matrix(1,0,0,1,0,0)"><path stroke-linecap="round" stroke-linejoin="round" fill-opacity="0" class="primary" stroke="rgb(232,57,47)" stroke-opacity="1" stroke-width="7" d=" M-22.5,20 C-22.5,20 22.5,-20 22.5,-20"/></g></g><g transform="matrix(-1,0,0,1,352.5,345)" opacity="1" style="display: block;"><g opacity="1" transform="matrix(1,0,0,1,0,0)"><path stroke-linecap="round" stroke-linejoin="round" fill-opacity="0" class="primary" stroke="rgb(232,57,47)" stroke-opacity="1" stroke-width="7" d=" M-22.5,20 C-22.5,20 22.5,-20 22.5,-20"/></g></g><g transform="matrix(1,0,0,1,215,205)" opacity="1" style="display: block;"><g opacity="1" transform="matrix(1,0,0,1,0,0)"><path class="quaternary" fill="rgb(16,145,32)" fill-opacity="1" d=" M-182,-120 C-182,-120 182,-120 182,-120 C183.65699768066406,-120 185,-118.65699768066406 185,-117 C185,-117 185,117 185,117 C185,118.65699768066406 183.65699768066406,120 182,120 C182,120 -182,120 -182,120 C-183.65699768066406,120 -185,118.65699768066406 -185,117 C-185,117 -185,-117 -185,-117 C-185,-118.65699768066406 -183.65699768066406,-120 -182,-120z"/></g></g><g transform="matrix(1,0,0,1,40,205)" opacity="0.5" style="mix-blend-mode: multiply; display: block;"><g opacity="1" transform="matrix(1,0,0,1,0,0)"><path class="quaternary" fill="rgb(16,145,32)" fill-opacity="1" d=" M10,-120 C10,-120 -10,-120 -10,-120 C-10,-120 -10,120 -10,120 C-10,120 10,120 10,120 C10,120 10,-120 10,-120z"/></g></g><g mask="url(#__lottie_element_642_1)" style="display: block;"><g transform="matrix(1,0,0,1,650,185)" opacity="1"><g opacity="1" transform="matrix(1,0,0,1,0,0)"><path class="quinary" fill="rgb(242,76,0)" fill-opacity="1" d=" M-82,-60 C-83.65699768066406,-60 -85,-58.65700149536133 -85,-57 C-85,-57 -85,57 -85,57 C-85,58.65700149536133 -83.65699768066406,60 -82,60 C-82,60 82,60 82,60 C83.65699768066406,60 85,58.65700149536133 85,57 C85,57 85,-57 85,-57 C85,-58.65700149536133 83.65699768066406,-60 82,-60 C82,-60 -82,-60 -82,-60z"/></g><g opacity="1" transform="matrix(1,0,0,1,-42.5,0)" style="mix-blend-mode: multiply;"><path class="quinary" fill="rgb(242,76,0)" fill-opacity="0.5" d=" M-42.5,57 C-42.5,57 -42.5,-57 -42.5,-57 C-42.5,-58.65700149536133 -41.15700149536133,-60 -39.5,-60 C-39.5,-60 42.5,-60 42.5,-60 C42.5,-60 42.5,60 42.5,60 C42.5,60 -39.5,60 -39.5,60 C-41.15700149536133,60 -42.5,58.65700149536133 -42.5,57z"/></g><g opacity="1" transform="matrix(1,0,0,1,-165,-30)"><path class="tertiary" fill="rgb(255,199,56)" fill-opacity="1" d=" M-37,-30 C-38.65700149536133,-30 -40,-28.656999588012695 -40,-27 C-40,-27 -40,27 -40,27 C-40,28.656999588012695 -38.65700149536133,30 -37,30 C-37,30 37,30 37,30 C38.65700149536133,30 40,28.656999588012695 40,27 C40,27 40,-27 40,-27 C40,-28.656999588012695 38.65700149536133,-30 37,-30 C37,-30 -37,-30 -37,-30z"/></g><g opacity="1" transform="matrix(1,0,0,1,-185,-30)" style="mix-blend-mode: multiply;"><path class="tertiary" fill="rgb(255,199,56)" fill-opacity="0.5" d=" M-20,27 C-20,27 -20,-27 -20,-27 C-20,-28.656999588012695 -18.656999588012695,-30 -17,-30 C-17,-30 20,-30 20,-30 C20,-30 20,30 20,30 C20,30 -17,30 -17,30 C-18.656999588012695,30 -20,28.656999588012695 -20,27z"/></g><g opacity="1" transform="matrix(1,0,0,1,-165,70)"><path class="secondary" fill="rgb(21,198,45)" fill-opacity="1" d=" M-37,-30 C-38.65700149536133,-30 -40,-28.656999588012695 -40,-27 C-40,-27 -40,27 -40,27 C-40,28.656999588012695 -38.65700149536133,30 -37,30 C-37,30 37,30 37,30 C38.65700149536133,30 40,28.656999588012695 40,27 C40,27 40,-27 40,-27 C40,-28.656999588012695 38.65700149536133,-30 37,-30 C37,-30 -37,-30 -37,-30z"/></g><g opacity="1" transform="matrix(1,0,0,1,-185,70)" style="mix-blend-mode: multiply;"><path class="secondary" fill="rgb(21,198,45)" fill-opacity="0.5" d=" M-20,27 C-20,27 -20,-27 -20,-27 C-20,-28.656999588012695 -18.656999588012695,-30 -17,-30 C-17,-30 20,-30 20,-30 C20,-30 20,30 20,30 C20,30 -17,30 -17,30 C-18.656999588012695,30 -20,28.656999588012695 -20,27z"/></g></g></g><g mask="url(#__lottie_element_637_1)" style="display: block;"><g transform="matrix(1,0,0,1,650,285)" opacity="1"><g opacity="1" transform="matrix(0,1,-1,0,0,-100)"><path class="quaternary" fill="rgb(16,145,32)" fill-opacity="1" d=" M15,12.5 C15,12.5 0,-12.5 0,-12.5 C0,-12.5 -15,12.5 -15,12.5 C-15,12.5 15,12.5 15,12.5z"/><path stroke-linecap="butt" stroke-linejoin="round" fill-opacity="0" class="quaternary" stroke="rgb(16,145,32)" stroke-opacity="1" stroke-width="7" d=" M15,12.5 C15,12.5 0,-12.5 0,-12.5 C0,-12.5 -15,12.5 -15,12.5 C-15,12.5 15,12.5 15,12.5z"/></g><g opacity="1" transform="matrix(1,0,0,1,0,0)"><path stroke-linecap="round" stroke-linejoin="round" fill-opacity="0" class="primary" stroke="rgb(232,57,47)" stroke-opacity="1" stroke-width="7" d=" M-85,0 C-85,0 85,0 85,0"/></g></g></g><g clip-path="url(#__lottie_element_686)" transform="matrix(1,0,0,1,0,0)" opacity="1" style="display: none;"><g transform="matrix(1,0,0,1,215,201.65699768066406)" opacity="1" style="display: block;"><path class="tertiary" fill="rgb(255,199,56)" fill-opacity="1" d=" M42.18899917602539,66.6917495727539 C42.18899917602539,66.6917495727539 -42.18899917602539,66.6917495727539 -42.18899917602539,66.6917495727539 C-42.18899917602539,66.6917495727539 -42.18899917602539,-66.6917495727539 -42.18899917602539,-66.6917495727539 C-42.18899917602539,-66.6917495727539 42.18899917602539,-66.6917495727539 42.18899917602539,-66.6917495727539 C42.18899917602539,-66.6917495727539 42.18899917602539,66.6917495727539 42.18899917602539,66.6917495727539z"/><g opacity="1" transform="matrix(1,0,0,1,0,0)"><path stroke-linecap="round" stroke-linejoin="round" fill-opacity="0" class="primary" stroke="rgb(232,57,47)" stroke-opacity="1" stroke-width="0" d=" M42.18899917602539,66.6917495727539 C42.18899917602539,66.6917495727539 -42.18899917602539,66.6917495727539 -42.18899917602539,66.6917495727539 C-42.18899917602539,66.6917495727539 -42.18899917602539,-66.6917495727539 -42.18899917602539,-66.6917495727539 C-42.18899917602539,-66.6917495727539 42.18899917602539,-66.6917495727539 42.18899917602539,-66.6917495727539 C42.18899917602539,-66.6917495727539 42.18899917602539,66.6917495727539 42.18899917602539,66.6917495727539z"/></g></g><g transform="matrix(1,0,0,1,146.552001953125,201.65699768066406)" opacity="1" style="display: block;"><g opacity="1" transform="matrix(1,0,0,1,0,0)"><path stroke-linecap="round" stroke-linejoin="round" fill-opacity="0" class="primary" stroke="rgb(232,57,47)" stroke-opacity="1" stroke-width="7" d=" M0,39.970314025878906 C0,39.970314025878906 0,-39.970314025878906 0,-39.970314025878906"/></g></g><g transform="matrix(1,0,0,1,281.71600341796875,201.65699768066406)" opacity="1" style="display: block;"><g opacity="1" transform="matrix(1,0,0,1,0,0)"><path stroke-linecap="round" stroke-linejoin="round" fill-opacity="0" class="primary" stroke="rgb(232,57,47)" stroke-opacity="1" stroke-width="7" d=" M0,39.97105407714844 C0,39.97105407714844 0,-39.97105407714844 0,-39.97105407714844"/></g></g><g transform="matrix(1,0,0,1,121.59700012207031,201.65699768066406)" opacity="1" style="display: block;"><g opacity="1" transform="matrix(1,0,0,1,0,0)"><path stroke-linecap="round" stroke-linejoin="round" fill-opacity="0" class="primary" stroke="rgb(232,57,47)" stroke-opacity="1" stroke-width="7" d=" M0,39.89437484741211 C0,39.89437484741211 0,-39.89437484741211 0,-39.89437484741211"/></g></g><g transform="matrix(1,0,0,1,306.6719970703125,201.65699768066406)" opacity="1" style="display: block;"><g opacity="1" transform="matrix(1,0,0,1,0,0)"><path stroke-linecap="round" stroke-linejoin="round" fill-opacity="0" class="primary" stroke="rgb(232,57,47)" stroke-opacity="1" stroke-width="7" d=" M0,39.89437484741211 C0,39.89437484741211 0,-39.89437484741211 0,-39.89437484741211"/></g></g><g transform="matrix(1,0,0,1,96.64199829101562,201.65699768066406)" opacity="1" style="display: block;"><g opacity="1" transform="matrix(1,0,0,1,0,0)"><path stroke-linecap="round" stroke-linejoin="round" fill-opacity="0" class="primary" stroke="rgb(232,57,47)" stroke-opacity="1" stroke-width="7" d=" M0,39.780155181884766 C0,39.780155181884766 0,-39.780155181884766 0,-39.780155181884766"/></g></g><g transform="matrix(1,0,0,1,331.62701416015625,201.65699768066406)" opacity="1" style="display: block;"><g opacity="1" transform="matrix(1,0,0,1,0,0)"><path stroke-linecap="round" stroke-linejoin="round" fill-opacity="0" class="primary" stroke="rgb(232,57,47)" stroke-opacity="1" stroke-width="7" d=" M0,39.780155181884766 C0,39.780155181884766 0,-39.780155181884766 0,-39.780155181884766"/></g></g></g><g clip-path="url(#__lottie_element_739)" transform="matrix(1,0,0,1,0,0)" opacity="1" style="display: none;"><g transform="matrix(1,0,0,1,215,201.65699768066406)" opacity="1" style="display: block;"><path class="tertiary" fill="rgb(255,199,56)" fill-opacity="1" d=" M-68.5,40.15700149536133 C-68.5,40.15700149536133 -68.68900299072266,40.15700149536133 -68.68900299072266,40.15700149536133 C-68.68900299072266,40.15700149536133 -68.68900299072266,-40.15700149536133 -68.68900299072266,-40.15700149536133 C-68.68900299072266,-40.15700149536133 -68.5,-40.15700149536133 -68.5,-40.15700149536133 C-68.5,-40.15700149536133 -68.5,40.15700149536133 -68.5,40.15700149536133z"/><g opacity="1" transform="matrix(1,0,0,1,0,0)"><path stroke-linecap="round" stroke-linejoin="round" fill-opacity="0" class="primary" stroke="rgb(232,57,47)" stroke-opacity="1" stroke-width="7" d=" M-68.5,40.15700149536133 C-68.5,40.15700149536133 -68.68900299072266,40.15700149536133 -68.68900299072266,40.15700149536133 C-68.68900299072266,40.15700149536133 -68.68900299072266,-40.15700149536133 -68.68900299072266,-40.15700149536133 C-68.68900299072266,-40.15700149536133 -68.5,-40.15700149536133 -68.5,-40.15700149536133 C-68.5,-40.15700149536133 -68.5,40.15700149536133 -68.5,40.15700149536133z"/></g></g><g transform="matrix(1,0,0,1,215,201.65699768066406)" opacity="1" style="display: block;"><path class="secondary" fill="rgb(21,198,45)" fill-opacity="1" d=" M42.18899917602539,66.71600341796875 C42.18899917602539,66.71600341796875 -42.18899917602539,66.71600341796875 -42.18899917602539,66.71600341796875 C-42.18899917602539,66.71600341796875 -42.18899917602539,-66.71600341796875 -42.18899917602539,-66.71600341796875 C-42.18899917602539,-66.71600341796875 42.18899917602539,-66.71600341796875 42.18899917602539,-66.71600341796875 C42.18899917602539,-66.71600341796875 42.18899917602539,66.71600341796875 42.18899917602539,66.71600341796875z"/><g opacity="1" transform="matrix(1,0,0,1,0,0)"/></g><g transform="matrix(1,0,0,1,121.052001953125,201.65699768066406)" opacity="1" style="display: block;"><g opacity="1" transform="matrix(1,0,0,1,0,0)"><path stroke-linecap="round" stroke-linejoin="round" fill-opacity="0" class="primary" stroke="rgb(232,57,47)" stroke-opacity="1" stroke-width="7" d=" M0,40.029998779296875 C0,40.029998779296875 0,-40.029998779296875 0,-40.029998779296875"/></g></g><g transform="matrix(1,0,0,1,280.6754455566406,201.65699768066406)" opacity="1" style="display: none;"><g opacity="1" transform="matrix(1,0,0,1,0,0)"><path stroke-linecap="round" stroke-linejoin="round" fill-opacity="0" class="primary" stroke="rgb(232,57,47)" stroke-opacity="1" stroke-width="7" d=" M0,40.029998779296875 C0,40.029998779296875 0,-40.029998779296875 0,-40.029998779296875"/></g></g><g transform="matrix(1,0,0,1,96.09700012207031,201.65699768066406)" opacity="1" style="display: block;"><g opacity="1" transform="matrix(1,0,0,1,0,0)"><path stroke-linecap="round" stroke-linejoin="round" fill-opacity="0" class="primary" stroke="rgb(232,57,47)" stroke-opacity="1" stroke-width="7" d=" M0,40.029998779296875 C0,40.029998779296875 0,-40.029998779296875 0,-40.029998779296875"/></g></g><g transform="matrix(1,0,0,1,281.1719970703125,201.65699768066406)" opacity="1" style="display: block;"><g opacity="1" transform="matrix(1,0,0,1,0,0)"><path stroke-linecap="round" stroke-linejoin="round" fill-opacity="0" class="primary" stroke="rgb(232,57,47)" stroke-opacity="1" stroke-width="7" d=" M0,40.029998779296875 C0,40.029998779296875 0,-40.029998779296875 0,-40.029998779296875"/></g></g><g transform="matrix(1,0,0,1,83.14622497558594,201.65699768066406)" opacity="1" style="display: none;"><g opacity="1" transform="matrix(1,0,0,1,0,0)"><path stroke-linecap="round" stroke-linejoin="round" fill-opacity="0" class="primary" stroke="rgb(232,57,47)" stroke-opacity="1" stroke-width="7" d=" M0,-0.34299999475479126 C0,-0.34299999475479126 0,0.34299999475479126 0,0.34299999475479126"/></g></g><g transform="matrix(1,0,0,1,306.12701416015625,201.65699768066406)" opacity="1" style="display: block;"><g opacity="1" transform="matrix(1,0,0,1,0,0)"><path stroke-linecap="round" stroke-linejoin="round" fill-opacity="0" class="primary" stroke="rgb(232,57,47)" stroke-opacity="1" stroke-width="7" d=" M0,40.029998779296875 C0,40.029998779296875 0,-40.029998779296875 0,-40.029998779296875"/></g></g><g transform="matrix(1,0,0,1,331.62701416015625,201.65699768066406)" opacity="1" style="display: block;"><g opacity="1" transform="matrix(1,0,0,1,0,0)"><path stroke-linecap="round" stroke-linejoin="round" fill-opacity="0" class="primary" stroke="rgb(232,57,47)" stroke-opacity="1" stroke-width="7" d=" M0,40.029998779296875 C0,40.029998779296875 0,-40.029998779296875 0,-40.029998779296875"/></g></g></g><g clip-path="url(#__lottie_element_773)" transform="matrix(1,0,0,1,0,0)" opacity="1" style="display: none;"><g transform="matrix(1,0,0,1,215,201.65699768066406)" opacity="1" style="display: block;"><path class="tertiary" fill="rgb(255,199,56)" fill-opacity="1" d=" M-68.5,40.15700149536133 C-68.5,40.15700149536133 -68.68900299072266,40.15700149536133 -68.68900299072266,40.15700149536133 C-68.68900299072266,40.15700149536133 -68.68900299072266,-40.15700149536133 -68.68900299072266,-40.15700149536133 C-68.68900299072266,-40.15700149536133 -68.5,-40.15700149536133 -68.5,-40.15700149536133 C-68.5,-40.15700149536133 -68.5,40.15700149536133 -68.5,40.15700149536133z"/><g opacity="1" transform="matrix(1,0,0,1,0,0)"><path stroke-linecap="round" stroke-linejoin="round" fill-opacity="0" class="primary" stroke="rgb(232,57,47)" stroke-opacity="1" stroke-width="7" d=" M-68.5,40.15700149536133 C-68.5,40.15700149536133 -68.68900299072266,40.15700149536133 -68.68900299072266,40.15700149536133 C-68.68900299072266,40.15700149536133 -68.68900299072266,-40.15700149536133 -68.68900299072266,-40.15700149536133 C-68.68900299072266,-40.15700149536133 -68.5,-40.15700149536133 -68.5,-40.15700149536133 C-68.5,-40.15700149536133 -68.5,40.15700149536133 -68.5,40.15700149536133z"/></g></g><g transform="matrix(1,0,0,1,215,201.65699768066406)" opacity="1" style="display: block;"><path class="secondary" fill="rgb(21,198,45)" fill-opacity="1" d=" M42.18899917602539,66.71600341796875 C42.18899917602539,66.71600341796875 -42.18899917602539,66.71600341796875 -42.18899917602539,66.71600341796875 C-42.18899917602539,66.71600341796875 -42.18899917602539,-66.71600341796875 -42.18899917602539,-66.71600341796875 C-42.18899917602539,-66.71600341796875 42.18899917602539,-66.71600341796875 42.18899917602539,-66.71600341796875 C42.18899917602539,-66.71600341796875 42.18899917602539,66.71600341796875 42.18899917602539,66.71600341796875z"/><g opacity="1" transform="matrix(1,0,0,1,0,0)"/></g><g transform="matrix(1,0,0,1,121.052001953125,201.65699768066406)" opacity="1" style="display: block;"><g opacity="1" transform="matrix(1,0,0,1,0,0)"><path stroke-linecap="round" stroke-linejoin="round" fill-opacity="0" class="primary" stroke="rgb(232,57,47)" stroke-opacity="1" stroke-width="7" d=" M0,40.029998779296875 C0,40.029998779296875 0,-40.029998779296875 0,-40.029998779296875"/></g></g><g transform="matrix(1,0,0,1,280.9136047363281,201.65699768066406)" opacity="1" style="display: none;"><g opacity="1" transform="matrix(1,0,0,1,0,0)"><path stroke-linecap="round" stroke-linejoin="round" fill-opacity="0" class="primary" stroke="rgb(232,57,47)" stroke-opacity="1" stroke-width="7" d=" M0,40.029998779296875 C0,40.029998779296875 0,-40.029998779296875 0,-40.029998779296875"/></g></g><g transform="matrix(1,0,0,1,96.09700012207031,201.65699768066406)" opacity="1" style="display: block;"><g opacity="1" transform="matrix(1,0,0,1,0,0)"><path stroke-linecap="round" stroke-linejoin="round" fill-opacity="0" class="primary" stroke="rgb(232,57,47)" stroke-opacity="1" stroke-width="7" d=" M0,40.029998779296875 C0,40.029998779296875 0,-40.029998779296875 0,-40.029998779296875"/></g></g><g transform="matrix(1,0,0,1,281.1719970703125,201.65699768066406)" opacity="1" style="display: block;"><g opacity="1" transform="matrix(1,0,0,1,0,0)"><path stroke-linecap="round" stroke-linejoin="round" fill-opacity="0" class="primary" stroke="rgb(232,57,47)" stroke-opacity="1" stroke-width="7" d=" M0,40.029998779296875 C0,40.029998779296875 0,-40.029998779296875 0,-40.029998779296875"/></g></g><g transform="matrix(1,0,0,1,83.84347534179688,201.65699768066406)" opacity="1" style="display: none;"><g opacity="1" transform="matrix(1,0,0,1,0,0)"><path stroke-linecap="round" stroke-linejoin="round" fill-opacity="0" class="primary" stroke="rgb(232,57,47)" stroke-opacity="1" stroke-width="7" d=" M0,-0.34299999475479126 C0,-0.34299999475479126 0,0.34299999475479126 0,0.34299999475479126"/></g></g><g transform="matrix(1,0,0,1,306.12701416015625,201.65699768066406)" opacity="1" style="display: block;"><g opacity="1" transform="matrix(1,0,0,1,0,0)"><path stroke-linecap="round" stroke-linejoin="round" fill-opacity="0" class="primary" stroke="rgb(232,57,47)" stroke-opacity="1" stroke-width="7" d=" M0,40.029998779296875 C0,40.029998779296875 0,-40.029998779296875 0,-40.029998779296875"/></g></g><g transform="matrix(1,0,0,1,331.62701416015625,201.65699768066406)" opacity="1" style="display: block;"><g opacity="1" transform="matrix(1,0,0,1,0,0)"><path stroke-linecap="round" stroke-linejoin="round" fill-opacity="0" class="primary" stroke="rgb(232,57,47)" stroke-opacity="1" stroke-width="7" d=" M0,40.029998779296875 C0,40.029998779296875 0,-40.029998779296875 0,-40.029998779296875"/></g></g></g><g clip-path="url(#__lottie_element_825)" transform="matrix(1,0,0,1,0,0)" opacity="1" style="display: none;"><g transform="matrix(1,0,0,1,215,201.65699768066406)" opacity="1" style="display: block;"><path class="tertiary" fill="rgb(255,199,56)" fill-opacity="1" d=" M-68.5,40.15700149536133 C-68.5,40.15700149536133 -68.68900299072266,40.15700149536133 -68.68900299072266,40.15700149536133 C-68.68900299072266,40.15700149536133 -68.68900299072266,-40.15700149536133 -68.68900299072266,-40.15700149536133 C-68.68900299072266,-40.15700149536133 -68.5,-40.15700149536133 -68.5,-40.15700149536133 C-68.5,-40.15700149536133 -68.5,40.15700149536133 -68.5,40.15700149536133z"/><g opacity="1" transform="matrix(1,0,0,1,0,0)"><path stroke-linecap="round" stroke-linejoin="round" fill-opacity="0" class="primary" stroke="rgb(232,57,47)" stroke-opacity="1" stroke-width="7" d=" M-68.5,40.15700149536133 C-68.5,40.15700149536133 -68.68900299072266,40.15700149536133 -68.68900299072266,40.15700149536133 C-68.68900299072266,40.15700149536133 -68.68900299072266,-40.15700149536133 -68.68900299072266,-40.15700149536133 C-68.68900299072266,-40.15700149536133 -68.5,-40.15700149536133 -68.5,-40.15700149536133 C-68.5,-40.15700149536133 -68.5,40.15700149536133 -68.5,40.15700149536133z"/></g></g><g transform="matrix(1,0,0,1,215,201.65699768066406)" opacity="1" style="display: block;"><path class="secondary" fill="rgb(21,198,45)" fill-opacity="1" d=" M42.18899917602539,66.71600341796875 C42.18899917602539,66.71600341796875 -42.18899917602539,66.71600341796875 -42.18899917602539,66.71600341796875 C-42.18899917602539,66.71600341796875 -42.18899917602539,-66.71600341796875 -42.18899917602539,-66.71600341796875 C-42.18899917602539,-66.71600341796875 42.18899917602539,-66.71600341796875 42.18899917602539,-66.71600341796875 C42.18899917602539,-66.71600341796875 42.18899917602539,66.71600341796875 42.18899917602539,66.71600341796875z"/><g opacity="1" transform="matrix(1,0,0,1,0,0)"/></g><g transform="matrix(1,0,0,1,121.052001953125,201.65699768066406)" opacity="1" style="display: block;"><g opacity="1" transform="matrix(1,0,0,1,0,0)"><path stroke-linecap="round" stroke-linejoin="round" fill-opacity="0" class="primary" stroke="rgb(232,57,47)" stroke-opacity="1" stroke-width="7" d=" M0,40.029998779296875 C0,40.029998779296875 0,-40.029998779296875 0,-40.029998779296875"/></g></g><g transform="matrix(1,0,0,1,281.1016540527344,201.65699768066406)" opacity="1" style="display: none;"><g opacity="1" transform="matrix(1,0,0,1,0,0)"><path stroke-linecap="round" stroke-linejoin="round" fill-opacity="0" class="primary" stroke="rgb(232,57,47)" stroke-opacity="1" stroke-width="7" d=" M0,40.029998779296875 C0,40.029998779296875 0,-40.029998779296875 0,-40.029998779296875"/></g></g><g transform="matrix(1,0,0,1,96.09700012207031,201.65699768066406)" opacity="1" style="display: block;"><g opacity="1" transform="matrix(1,0,0,1,0,0)"><path stroke-linecap="round" stroke-linejoin="round" fill-opacity="0" class="primary" stroke="rgb(232,57,47)" stroke-opacity="1" stroke-width="7" d=" M0,40.029998779296875 C0,40.029998779296875 0,-40.029998779296875 0,-40.029998779296875"/></g></g><g transform="matrix(1,0,0,1,281.1719970703125,201.65699768066406)" opacity="1" style="display: block;"><g opacity="1" transform="matrix(1,0,0,1,0,0)"><path stroke-linecap="round" stroke-linejoin="round" fill-opacity="0" class="primary" stroke="rgb(232,57,47)" stroke-opacity="1" stroke-width="7" d=" M0,40.029998779296875 C0,40.029998779296875 0,-40.029998779296875 0,-40.029998779296875"/></g></g><g transform="matrix(1,0,0,1,84.92666625976562,201.65699768066406)" opacity="1" style="display: none;"><g opacity="1" transform="matrix(1,0,0,1,0,0)"><path stroke-linecap="round" stroke-linejoin="round" fill-opacity="0" class="primary" stroke="rgb(232,57,47)" stroke-opacity="1" stroke-width="7" d=" M0,2.933272123336792 C0,2.933272123336792 0,-2.933272123336792 0,-2.933272123336792"/></g></g><g transform="matrix(1,0,0,1,306.12701416015625,201.65699768066406)" opacity="1" style="display: block;"><g opacity="1" transform="matrix(1,0,0,1,0,0)"><path stroke-linecap="round" stroke-linejoin="round" fill-opacity="0" class="primary" stroke="rgb(232,57,47)" stroke-opacity="1" stroke-width="7" d=" M0,40.029998779296875 C0,40.029998779296875 0,-40.029998779296875 0,-40.029998779296875"/></g></g><g transform="matrix(1,0,0,1,331.62701416015625,201.65699768066406)" opacity="1" style="display: block;"><g opacity="1" transform="matrix(1,0,0,1,0,0)"><path stroke-linecap="round" stroke-linejoin="round" fill-opacity="0" class="primary" stroke="rgb(232,57,47)" stroke-opacity="1" stroke-width="7" d=" M0,40.029998779296875 C0,40.029998779296875 0,-40.029998779296875 0,-40.029998779296875"/></g></g></g><g mask="url(#__lottie_element_908_1)" style="display: block;"><g clip-path="url(#__lottie_element_905)" transform="matrix(1,0,0,1,0,0)" opacity="1"><g transform="matrix(1,0,0,1,215,201.65699768066406)" opacity="1" style="display: block;"><path class="tertiary" fill="rgb(255,199,56)" fill-opacity="1" d=" M-68.5,40.15700149536133 C-68.5,40.15700149536133 -68.68900299072266,40.15700149536133 -68.68900299072266,40.15700149536133 C-68.68900299072266,40.15700149536133 -68.68900299072266,-40.15700149536133 -68.68900299072266,-40.15700149536133 C-68.68900299072266,-40.15700149536133 -68.5,-40.15700149536133 -68.5,-40.15700149536133 C-68.5,-40.15700149536133 -68.5,40.15700149536133 -68.5,40.15700149536133z"/><g opacity="1" transform="matrix(1,0,0,1,0,0)"><path stroke-linecap="round" stroke-linejoin="round" fill-opacity="0" class="primary" stroke="rgb(232,57,47)" stroke-opacity="1" stroke-width="7" d=" M-68.5,40.15700149536133 C-68.5,40.15700149536133 -68.68900299072266,40.15700149536133 -68.68900299072266,40.15700149536133 C-68.68900299072266,40.15700149536133 -68.68900299072266,-40.15700149536133 -68.68900299072266,-40.15700149536133 C-68.68900299072266,-40.15700149536133 -68.5,-40.15700149536133 -68.5,-40.15700149536133 C-68.5,-40.15700149536133 -68.5,40.15700149536133 -68.5,40.15700149536133z"/></g></g><g transform="matrix(1,0,0,1,215,201.65699768066406)" opacity="1" style="display: block;"><path class="secondary" fill="rgb(21,198,45)" fill-opacity="1" d=" M42.18899917602539,66.71600341796875 C42.18899917602539,66.71600341796875 -42.18899917602539,66.71600341796875 -42.18899917602539,66.71600341796875 C-42.18899917602539,66.71600341796875 -42.18899917602539,-66.71600341796875 -42.18899917602539,-66.71600341796875 C-42.18899917602539,-66.71600341796875 42.18899917602539,-66.71600341796875 42.18899917602539,-66.71600341796875 C42.18899917602539,-66.71600341796875 42.18899917602539,66.71600341796875 42.18899917602539,66.71600341796875z"/><g opacity="1" transform="matrix(1,0,0,1,0,0)"/></g><g transform="matrix(1,0,0,1,121.052001953125,201.65699768066406)" opacity="1" style="display: block;"><g opacity="1" transform="matrix(1,0,0,1,0,0)"><path stroke-linecap="round" stroke-linejoin="round" fill-opacity="0" class="primary" stroke="rgb(232,57,47)" stroke-opacity="1" stroke-width="7" d=" M0,40.029998779296875 C0,40.029998779296875 0,-40.029998779296875 0,-40.029998779296875"/></g></g><g transform="matrix(1,0,0,1,96.09700012207031,201.65699768066406)" opacity="1" style="display: block;"><g opacity="1" transform="matrix(1,0,0,1,0,0)"><path stroke-linecap="round" stroke-linejoin="round" fill-opacity="0" class="primary" stroke="rgb(232,57,47)" stroke-opacity="1" stroke-width="7" d=" M0,40.029998779296875 C0,40.029998779296875 0,-40.029998779296875 0,-40.029998779296875"/></g></g><g transform="matrix(1,0,0,1,281.1719970703125,201.65699768066406)" opacity="1" style="display: block;"><g opacity="1" transform="matrix(1,0,0,1,0,0)"><path stroke-linecap="round" stroke-linejoin="round" fill-opacity="0" class="primary" stroke="rgb(232,57,47)" stroke-opacity="1" stroke-width="7" d=" M0,40.029998779296875 C0,40.029998779296875 0,-40.029998779296875 0,-40.029998779296875"/></g></g><g transform="matrix(1,0,0,1,306.12701416015625,201.65699768066406)" opacity="1" style="display: block;"><g opacity="1" transform="matrix(1,0,0,1,0,0)"><path stroke-linecap="round" stroke-linejoin="round" fill-opacity="0" class="primary" stroke="rgb(232,57,47)" stroke-opacity="1" stroke-width="7" d=" M0,40.029998779296875 C0,40.029998779296875 0,-40.029998779296875 0,-40.029998779296875"/></g></g><g transform="matrix(1,0,0,1,331.62701416015625,201.65699768066406)" opacity="1" style="display: block;"><g opacity="1" transform="matrix(1,0,0,1,0,0)"><path stroke-linecap="round" stroke-linejoin="round" fill-opacity="0" class="primary" stroke="rgb(232,57,47)" stroke-opacity="1" stroke-width="7" d=" M0,40.029998779296875 C0,40.029998779296875 0,-40.029998779296875 0,-40.029998779296875"/></g></g></g></g><g transform="matrix(1,0,0,1,275.8599853515625,185)" opacity="1" style="display: none;"><g opacity="1" transform="matrix(1,0,0,1,0,0)"><path class="quinary" fill="rgb(242,76,0)" fill-opacity="1" d=" M-81.99995422363281,-59.96021270751953 C-83.65695190429688,-59.96021270751953 -84.99995422363281,-58.61721420288086 -84.99995422363281,-56.96021270751953 C-84.99995422363281,-56.96021270751953 -85,57 -85,57 C-85,58.65700149536133 -83.65699768066406,60 -82,60 C-82,60 82,60 82,60 C83.65699768066406,60 85,58.65700149536133 85,57 C85,57 85.00004577636719,-56.96021270751953 85.00004577636719,-56.96021270751953 C85.00004577636719,-58.61721420288086 83.65704345703125,-59.96021270751953 82.00004577636719,-59.96021270751953 C82.00004577636719,-59.96021270751953 -81.99995422363281,-59.96021270751953 -81.99995422363281,-59.96021270751953z"/></g><g opacity="1" transform="matrix(1,0,0,1,-42.5,0)" style="mix-blend-mode: multiply;"><path class="quinary" fill="rgb(242,76,0)" fill-opacity="0.5" d=" M-42.5,57 C-42.5,57 -42.49995422363281,-56.96021270751953 -42.49995422363281,-56.96021270751953 C-42.49995422363281,-58.61721420288086 -41.15695571899414,-59.96021270751953 -39.49995422363281,-59.96021270751953 C-39.49995422363281,-59.96021270751953 42.50004577636719,-59.96021270751953 42.50004577636719,-59.96021270751953 C42.50004577636719,-59.96021270751953 42.5,60 42.5,60 C42.5,60 -39.5,60 -39.5,60 C-41.15700149536133,60 -42.5,58.65700149536133 -42.5,57z"/></g><g opacity="1" transform="matrix(1,0,0,1,-165,-30)"><path class="tertiary" fill="rgb(255,199,56)" fill-opacity="1" d=" M-36.99995422363281,-29.959808349609375 C-38.65695571899414,-29.959808349609375 -39.99995422363281,-28.61724853515625 -39.99995422363281,-26.96078872680664 C-39.99995422363281,-26.96078872680664 -39.99995422363281,27.02157974243164 -39.99995422363281,27.02157974243164 C-39.99995422363281,28.67803955078125 -38.65695571899414,30.020601272583008 -36.99995422363281,30.020601272583008 C-36.99995422363281,30.020601272583008 37.00004577636719,30.020601272583008 37.00004577636719,30.020601272583008 C38.65704345703125,30.020601272583008 40.00004577636719,28.67803955078125 40.00004577636719,27.02157974243164 C40.00004577636719,27.02157974243164 40.00004577636719,-26.96078872680664 40.00004577636719,-26.96078872680664 C40.00004577636719,-28.61724853515625 38.65704345703125,-29.959808349609375 37.00004577636719,-29.959808349609375 C37.00004577636719,-29.959808349609375 -36.99995422363281,-29.959808349609375 -36.99995422363281,-29.959808349609375z"/></g><g opacity="1" transform="matrix(1,0,0,1,-185,-30)" style="mix-blend-mode: multiply;"><path class="tertiary" fill="rgb(255,199,56)" fill-opacity="0.5" d=" M-19.999956130981445,27.02157974243164 C-19.999956130981445,27.02157974243164 -19.999956130981445,-26.96078872680664 -19.999956130981445,-26.96078872680664 C-19.999956130981445,-28.61724853515625 -18.65695571899414,-29.959808349609375 -16.999956130981445,-29.959808349609375 C-16.999956130981445,-29.959808349609375 20.000043869018555,-29.959808349609375 20.000043869018555,-29.959808349609375 C20.000043869018555,-29.959808349609375 20.000043869018555,30.020601272583008 20.000043869018555,30.020601272583008 C20.000043869018555,30.020601272583008 -16.999956130981445,30.020601272583008 -16.999956130981445,30.020601272583008 C-18.65695571899414,30.020601272583008 -19.999956130981445,28.67803955078125 -19.999956130981445,27.02157974243164z"/></g><g opacity="1" transform="matrix(1,0,0,1,-165,70)"><path class="secondary" fill="rgb(21,198,45)" fill-opacity="1" d=" M-36.99995422363281,-29.97980308532715 C-38.65695571899414,-29.97980308532715 -39.99995422363281,-28.636802673339844 -39.99995422363281,-26.97980308532715 C-39.99995422363281,-26.97980308532715 -40,27 -40,27 C-40,28.656999588012695 -38.65700149536133,30 -37,30 C-37,30 37,30 37,30 C38.65700149536133,30 40,28.656999588012695 40,27 C40,27 40.00004577636719,-26.97980308532715 40.00004577636719,-26.97980308532715 C40.00004577636719,-28.636802673339844 38.65704345703125,-29.97980308532715 37.00004577636719,-29.97980308532715 C37.00004577636719,-29.97980308532715 -36.99995422363281,-29.97980308532715 -36.99995422363281,-29.97980308532715z"/></g><g opacity="1" transform="matrix(1,0,0,1,-185,70)" style="mix-blend-mode: multiply;"><path class="secondary" fill="rgb(21,198,45)" fill-opacity="0.5" d=" M-20,27 C-20,27 -19.999956130981445,-26.97980308532715 -19.999956130981445,-26.97980308532715 C-19.999956130981445,-28.636802673339844 -18.65695571899414,-29.97980308532715 -16.999956130981445,-29.97980308532715 C-16.999956130981445,-29.97980308532715 20.000043869018555,-29.97980308532715 20.000043869018555,-29.97980308532715 C20.000043869018555,-29.97980308532715 20,30 20,30 C20,30 -17,30 -17,30 C-18.656999588012695,30 -20,28.656999588012695 -20,27z"/></g></g><g mask="url(#__lottie_element_637_1)" style="display: none;"><g transform="matrix(1,0,0,1,275,285)" opacity="1"><g opacity="1" transform="matrix(0,1,-1,0,0,-100)"><path class="quaternary" fill="rgb(16,145,32)" fill-opacity="1" d=" M15.012434005737305,12.518301963806152 C15.012434005737305,12.518301963806152 0.016780467703938484,-12.474453926086426 0.016780467703938484,-12.474453926086426 C0.016780467703938484,-12.474453926086426 -14.978873252868652,12.518301963806152 -14.978873252868652,12.518301963806152 C-14.978873252868652,12.518301963806152 15.012434005737305,12.518301963806152 15.012434005737305,12.518301963806152z"/><path stroke-linecap="butt" stroke-linejoin="round" fill-opacity="0" class="quaternary" stroke="rgb(16,145,32)" stroke-opacity="1" stroke-width="7" d=" M15.012434005737305,12.518301963806152 C15.012434005737305,12.518301963806152 0.016780467703938484,-12.474453926086426 0.016780467703938484,-12.474453926086426 C0.016780467703938484,-12.474453926086426 -14.978873252868652,12.518301963806152 -14.978873252868652,12.518301963806152 C-14.978873252868652,12.518301963806152 15.012434005737305,12.518301963806152 15.012434005737305,12.518301963806152z"/></g><g opacity="1" transform="matrix(1,0,0,1,0,0)"><path stroke-linecap="round" stroke-linejoin="round" fill-opacity="0" class="primary" stroke="rgb(232,57,47)" stroke-opacity="1" stroke-width="7" d=" M-85,0 C-85,0 81.22899627685547,0 84.93699645996094,0"/></g></g></g><g transform="matrix(1,0,0,1,215,205)" opacity="1" style="display: block;"><g opacity="1" transform="matrix(1,0,0,1,0,0)"><path class="primary" fill="rgb(232,57,47)" fill-opacity="1" d=" M185,-117 C185,-118.65699768066406 183.65699768066406,-120 182,-120 C182,-120 -182,-120 -182,-120 C-183.65699768066406,-120 -185,-118.65699768066406 -185,-117 C-185,-117 -185,117 -185,117 C-185,118.65699768066406 -183.65699768066406,120 -182,120 C-182,120 182,120 182,120 C183.65699768066406,120 185,118.65699768066406 185,117 C185,117 185,-117 185,-117z M-175,-110 C-175,-110 175,-110 175,-110 C175,-110 175,110 175,110 C175,110 -175,110 -175,110 C-175,110 -175,-110 -175,-110z"/></g></g></g></g></svg>